<svg xmlns="http://www.w3.org/2000/svg" xmlns:xlink="http://www.w3.org/1999/xlink" width="15" height="15" viewBox="0 0 15 15"><defs><path id="2x47a" d="M285 4921v-10.31h3.35V4921z"/><path id="2x47b" d="M297.5 4910.8l-.12-.03a3 3 0 0 0-.74-.09c-1.95 0-3.19 1.43-3.6 1.98v-1.97h-3.35V4921h3.35v-5.63s2.54-3.53 3.6-.93v6.56H300v-6.96a3.34 3.34 0 0 0-2.5-3.23z"/><path id="2x47c" d="M285 4907.64a1.64 1.64 0 1 1 3.28 0 1.64 1.64 0 0 1-3.28 0z"/></defs><g><g transform="translate(-285 -4906)"><g><use xlink:href="#2x47a"/></g><g><use xlink:href="#2x47b"/></g><g><use xlink:href="#2x47c"/></g></g></g></svg>