<svg xmlns="http://www.w3.org/2000/svg" xmlns:xlink="http://www.w3.org/1999/xlink" width="32" height="32" viewBox="0 0 32 32"><defs><path id="gk5fa" d="M1193.98 1546.32a.79.79 0 0 0-1.03.01l-2.15 1.92v-.25a.53.53 0 1 0-1.06 0v1.2l-.9.8a.53.53 0 0 0 .72.8l3.9-3.5 3.92 3.5a.53.53 0 1 0 .71-.8z"/><path id="gk5fb" d="M1196.67 1551.47c-.3 0-.54.23-.54.53v3.73h-5.33V1552a.53.53 0 1 0-1.06 0v4.07c0 .4.34.73.74.73h5.97c.41 0 .75-.32.75-.73V1552c0-.3-.24-.53-.53-.53z"/><path id="gk5fc" d="M1195.69 1563.06l-1.69-1.68v-2.4a2.66 2.66 0 0 1 1.69 4.08zm-4.18.33l1.88-1.12 1.55 1.55a2.64 2.64 0 0 1-3.43-.43zm-.7-1.8c0-1.26.88-2.35 2.13-2.6v2.3l-1.98 1.19c-.1-.29-.16-.58-.16-.88zm2.66-3.73a3.73 3.73 0 1 0 0 7.47 3.73 3.73 0 0 0 0-7.47z"/><path id="gk5fd" d="M1212.66 1553.6v-1.6h1.07v1.6zm-3.2 0h-1.06v-3.2h1.07zm-4.26 0h-1.07v-5.87h1.07zm9.6-1.83a.84.84 0 0 0-.84-.84h-1.52a.84.84 0 0 0-.84.84v1.83h-1.07v-3.35c0-.5-.41-.92-.92-.92h-1.36c-.5 0-.92.42-.92.92v3.35h-1.06v-5.87c0-.59-.48-1.06-1.07-1.06h-1.07c-.59 0-1.06.47-1.06 1.06v5.87h-.54a.53.53 0 0 1-.53-.54v-6.4a.53.53 0 0 0-1.07 0v6.4c0 .89.72 1.6 1.6 1.6h12.27a.53.53 0 1 0 0-1.06z"/><path id="gk5fe" d="M1214.8 1564.26h-12.27a.53.53 0 0 1-.53-.53v-.85l1.76-1.75c.2-.2.54-.2.75 0l.62.62a1.6 1.6 0 0 0 2.27 0l2.22-2.22c.21-.2.54-.2.76 0l.62.62a1.6 1.6 0 0 0 2.26 0l1.91-1.9a.53.53 0 0 0-.75-.76l-1.91 1.9c-.21.22-.55.22-.76 0l-.62-.62c-.63-.6-1.63-.6-2.26 0l-2.23 2.23c-.2.2-.54.2-.75 0l-.63-.63c-.63-.6-1.62-.6-2.26 0l-1 1v-4.04a.53.53 0 0 0-1.07 0v6.4c0 .88.72 1.6 1.6 1.6h12.27a.53.53 0 1 0 0-1.07z"/><path id="gk5ff" d="M1216.93 1546.96v19.44h-29.86v-19.44c-.07-.96.64-1.8 1.6-1.9h26.66c.96.1 1.67.94 1.6 1.9zm-1.6 23.7h-26.66a1.77 1.77 0 0 1-1.6-1.89v-1.3h29.86v1.3c.07.96-.64 1.8-1.6 1.9zm-17.06 2.13v-1.06h7.46v1.06zm10.66 1.07c.6 0 1.07.48 1.07 1.07h-16c0-.6.48-1.07 1.07-1.07zm9.07-5.09v-21.81a2.83 2.83 0 0 0-2.67-2.96h-26.66a2.83 2.83 0 0 0-2.67 2.96v21.81a2.83 2.83 0 0 0 2.67 2.96h8.53v1.06h-2.13c-1.18 0-2.13.96-2.13 2.14v.53c0 .3.23.53.53.53h17.06c.3 0 .53-.24.53-.53v-.53c0-1.18-.95-2.14-2.13-2.14h-2.13v-1.06h8.53a2.83 2.83 0 0 0 2.67-2.96z"/></defs><g><g transform="translate(-1186 -1544)"><g><g><g><use fill="#24d39b" xlink:href="#gk5fa"/></g><g><use fill="#24d39b" xlink:href="#gk5fb"/></g><g><use fill="#24d39b" xlink:href="#gk5fc"/></g><g><use fill="#24d39b" xlink:href="#gk5fd"/></g><g><use fill="#24d39b" xlink:href="#gk5fe"/></g><g><use fill="#24d39b" xlink:href="#gk5ff"/></g></g></g></g></g></svg>