<svg xmlns="http://www.w3.org/2000/svg" xmlns:xlink="http://www.w3.org/1999/xlink" width="32" height="32" viewBox="0 0 32 32"><defs><path id="fqoda" d="M558.47 1571.73v-1.06h1.06v1.06z"/><path id="fqodb" d="M573.93 1573.87c0 .59-.47 1.06-1.06 1.06h-27.74c-.59 0-1.06-.47-1.06-1.06v-1.07h9.9l.92.91c.1.1.24.16.38.16h7.46c.14 0 .28-.06.38-.16l.91-.91h9.91zm-28.8-21.34c0-.59.48-1.06 1.07-1.06h3.2v1.06h-2.67c-.3 0-.53.24-.53.54v16c0 .3.24.53.53.53h24.54c.3 0 .53-.24.53-.53v-16c0-.3-.24-.54-.53-.54h-2.67v-1.06h3.2c.59 0 1.07.47 1.07 1.06v19.2h-9.07a.53.53 0 0 0-.38.16l-.9.91h-7.03l-.91-.91a.53.53 0 0 0-.38-.16h-9.07zm21.34 14.4c1.17 0 2.13-.95 2.13-2.13v-11.2h2.13v14.93h-23.46v-14.93h2.13v11.2c0 1.18.96 2.13 2.13 2.13zm-16-17.6h17.06v15.47c0 .59-.47 1.07-1.06 1.07h-14.94c-.59 0-1.06-.48-1.06-1.07zm0-3.2c0-.59.47-1.06 1.06-1.06h14.94c.59 0 1.06.47 1.06 1.06v2.14h-17.06zm23.46 25.6v-19.2c0-1.17-.95-2.13-2.13-2.13h-3.2v-4.27c0-1.17-.96-2.13-2.13-2.13h-14.94c-1.17 0-2.13.96-2.13 2.13v4.27h-3.2c-1.18 0-2.13.96-2.13 2.13v19.2h-.54c-.3 0-.53.24-.53.54v1.6c0 1.17.96 2.13 2.13 2.13h27.74c1.17 0 2.13-.96 2.13-2.13v-1.6c0-.3-.24-.54-.53-.54z"/><path id="fqodc" d="M552.07 1562.13v-1.06h13.86v1.06z"/><path id="fqodd" d="M552.07 1564.27v-1.07h12.8v1.07z"/><path id="fqode" d="M555.27 1560v-1.07h10.66v1.07z"/><path id="fqodf" d="M551.53 1547.2v-1.07h1.07v1.07z"/><path id="fqodg" d="M553.67 1547.2v-1.07h1.06v1.07z"/><path id="fqodh" d="M555.8 1547.2v-1.07h1.07v1.07z"/><path id="fqodi" d="M553.13 1560v-1.07h1.07v1.07z"/><path id="fqodj" d="M557.19 1552.96l-.64-.85-2.14 1.6a.53.53 0 0 0 0 .85l2.14 1.6.64-.85-1.57-1.18z"/><path id="fqodk" d="M563.7 1553.81a.53.53 0 0 0-.11-.1l-2.14-1.6-.64.85 1.57 1.17-1.57 1.18.64.85 2.14-1.6a.53.53 0 0 0 .1-.75z"/><path id="fqodl" d="M558.43 1557l-1-.4 2.14-5.33 1 .4z"/></defs><g><g transform="translate(-543 -1544)"><g><g><g><use fill="#24d39b" xlink:href="#fqoda"/></g></g></g><g><g><g><use fill="#24d39b" xlink:href="#fqodb"/></g></g></g><g><g><g><use fill="#24d39b" xlink:href="#fqodc"/></g></g></g><g><g><g><use fill="#24d39b" xlink:href="#fqodd"/></g></g></g><g><g><g><use fill="#24d39b" xlink:href="#fqode"/></g></g></g><g><g><g><use fill="#24d39b" xlink:href="#fqodf"/></g></g></g><g><g><g><use fill="#24d39b" xlink:href="#fqodg"/></g></g></g><g><g><g><use fill="#24d39b" xlink:href="#fqodh"/></g></g></g><g><g><g><use fill="#24d39b" xlink:href="#fqodi"/></g></g></g><g><g><g><use fill="#24d39b" xlink:href="#fqodj"/></g></g></g><g><g><g><use fill="#24d39b" xlink:href="#fqodk"/></g></g></g><g><g><g><use fill="#24d39b" xlink:href="#fqodl"/></g></g></g></g></g></svg>