<svg xmlns="http://www.w3.org/2000/svg" xmlns:xlink="http://www.w3.org/1999/xlink" width="15" height="15" viewBox="0 0 15 15"><defs><path id="vj5oa" d="M251.6 4916.31c0 1.81-1.48 3.28-3.29 3.28h-5.62a3.28 3.28 0 0 1-3.28-3.28v-5.62c0-1.81 1.47-3.28 3.28-3.28h5.62c1.81 0 3.28 1.47 3.28 3.28zM248.3 4906h-5.62a4.69 4.69 0 0 0-4.69 4.69v5.62c0 2.6 2.1 4.69 4.69 4.69h5.62c2.6 0 4.69-2.1 4.69-4.69v-5.62c0-2.6-2.1-4.69-4.69-4.69z"/><path id="vj5ob" d="M245.5 4915.84a2.35 2.35 0 1 1 0-4.69 2.35 2.35 0 0 1 0 4.7zm0-6.09a3.75 3.75 0 1 0 0 7.5 3.75 3.75 0 0 0 0-7.5z"/><path id="vj5oc" d="M249.03 4909.47a.5.5 0 1 1 1 0 .5.5 0 0 1-1 0z"/></defs><g><g transform="translate(-238 -4906)"><g><use xlink:href="#vj5oa"/></g><g><use xlink:href="#vj5ob"/></g><g><use xlink:href="#vj5oc"/></g></g></g></svg>