<svg xmlns="http://www.w3.org/2000/svg" xmlns:xlink="http://www.w3.org/1999/xlink" width="19" height="15" viewBox="0 0 19 15"><defs><path id="xhrva" d="M349.46 4907.78c-.69.3-1.42.5-2.18.6a3.76 3.76 0 0 0 1.67-2.1c-.74.44-1.54.75-2.4.92a3.8 3.8 0 0 0-6.46 3.45 10.71 10.71 0 0 1-7.8-3.96 3.81 3.81 0 0 0 1.16 5.06c-.61-.01-1.2-.19-1.71-.47v.04a3.8 3.8 0 0 0 3.03 3.72 3.78 3.78 0 0 1-1.7.06 3.82 3.82 0 0 0 3.53 2.64 7.6 7.6 0 0 1-5.6 1.56 10.66 10.66 0 0 0 5.8 1.7c6.97 0 10.78-5.77 10.78-10.77 0-.17 0-.33-.02-.49a7.55 7.55 0 0 0 1.9-1.96z"/></defs><g><g transform="translate(-331 -4906)"><use xlink:href="#xhrva"/></g></g></svg>