<svg xmlns="http://www.w3.org/2000/svg" xmlns:xlink="http://www.w3.org/1999/xlink" width="32" height="32" viewBox="0 0 32 32"><defs><path id="h78fa" d="M249.73 1562.67v1.06a.53.53 0 0 0 1.07 0v-.53c0-.3.24-.53.53-.53h.54c.3 0 .53.24.53.53v5.87c0 1.17-.96 2.13-2.13 2.13h-5.34a2.13 2.13 0 0 1-2.13-2.13v-12c0-.06 0-.11.02-.16a.8.8 0 0 1 1.58.16v6.66a.53.53 0 0 0 1.07 0v-1.6c0-.3.24-.53.53-.53h.53c.3 0 .54.24.54.53v1.6a.53.53 0 0 0 1.06 0v-1.06c0-.3.24-.54.54-.54h.53c.3 0 .53.24.53.54zm1.6 12.26h-7.46v-2.85c.34.12.7.19 1.06.19h5.34c.36 0 .72-.07 1.06-.19zm-23.46-1.7v-2.56h14.3c.17.29.38.55.63.78v3.48h-13.24a1.7 1.7 0 0 1-1.7-1.7zm1.7-28.16h16.87c.93 0 1.7.76 1.7 1.7v1.5h-20.27v-1.5c0-.94.76-1.7 1.7-1.7zm12.35 11.2h-8.78a1.04 1.04 0 0 1-1-1.07c0-.28.1-.56.3-.76.18-.2.43-.3.7-.3h10.26c.57.01 1.02.49 1 1.06l-.01.16a1.71 1.71 0 0 0-.6-.15.74.74 0 0 0-.35 0c-.65.06-1.23.46-1.52 1.06zm5.96 5.01a1.6 1.6 0 0 0-1.35-.75H246c-.18 0-.36.04-.53.1v-3.56c0-.32-.08-.63-.24-.9.16-.3.23-.63.24-.97a2.1 2.1 0 0 0-2.07-2.13h-10.26c-.56 0-1.09.23-1.47.63-.39.4-.6.94-.6 1.5a2.1 2.1 0 0 0 2.07 2.13h8.6v11.74c0 .18.01.35.04.53h-13.91v-20.27h20.26v11.83c-.08.04-.17.07-.25.12zm1.32-14.52a2.77 2.77 0 0 0-2.76-2.76h-16.88a2.77 2.77 0 0 0-2.76 2.76v26.48a2.77 2.77 0 0 0 2.76 2.76h22.3c.3 0 .54-.24.54-.53v-4.02a3.19 3.19 0 0 0 1.07-2.38v-5.87c0-.88-.72-1.6-1.6-1.6h-.54c-.27 0-.54.08-.78.21a1.6 1.6 0 0 0-1.35-.74z"/><path id="h78fb" d="M237.47 1573.33v-1.06h1.06v1.06zm1.06-2.13h-1.06c-.6 0-1.07.48-1.07 1.07v1.06c0 .6.48 1.07 1.07 1.07h1.06c.6 0 1.07-.48 1.07-1.07v-1.06c0-.6-.48-1.07-1.07-1.07z"/><path id="h78fc" d="M230.53 1559.47c0 .3.24.53.54.53h1.6a.53.53 0 0 0 0-1.07h-1.6c-.3 0-.54.24-.54.54z"/><path id="h78fd" d="M234.8 1560h5.33a.53.53 0 1 0 0-1.07h-5.33a.53.53 0 1 0 0 1.07z"/><path id="h78fe" d="M232.67 1561.07h-1.6a.53.53 0 0 0 0 1.06h1.6a.53.53 0 0 0 0-1.06z"/><path id="h78ff" d="M234.8 1562.13h5.33a.53.53 0 1 0 0-1.06h-5.33a.53.53 0 1 0 0 1.06z"/><path id="h78fg" d="M232.67 1563.2h-1.6a.53.53 0 0 0 0 1.07h1.6a.53.53 0 0 0 0-1.07z"/><path id="h78fh" d="M234.8 1564.27h5.33a.53.53 0 1 0 0-1.07h-5.33a.53.53 0 1 0 0 1.07z"/><path id="h78fi" d="M232.67 1565.33h-1.6a.53.53 0 0 0 0 1.07h1.6a.53.53 0 0 0 0-1.07z"/><path id="h78fj" d="M234.8 1566.4h5.33a.53.53 0 1 0 0-1.07h-5.33a.53.53 0 1 0 0 1.07z"/><path id="h78fk" d="M224.13 1546.67c.3 0 .54-.24.54-.54v-.53a.53.53 0 1 0-1.07 0v.53c0 .3.24.54.53.54z"/><path id="h78fl" d="M223.6 1548.8a.53.53 0 0 0 1.07 0v-.53a.53.53 0 0 0-1.07 0z"/><path id="h78fm" d="M222.53 1547.73h.54a.53.53 0 1 0 0-1.06h-.54a.53.53 0 1 0 0 1.06z"/><path id="h78fn" d="M225.73 1546.67h-.53a.53.53 0 0 0 0 1.06h.53a.53.53 0 0 0 0-1.06z"/><path id="h78fo" d="M251.87 1551.47c.3 0 .53-.24.53-.54v-.53a.53.53 0 0 0-1.07 0v.53c0 .3.24.54.54.54z"/><path id="h78fp" d="M251.33 1553.6a.53.53 0 0 0 1.07 0v-.53a.53.53 0 0 0-1.07 0z"/><path id="h78fq" d="M250.8 1551.47h-.53a.53.53 0 0 0 0 1.06h.53a.53.53 0 0 0 0-1.06z"/><path id="h78fr" d="M253.47 1551.47h-.54a.53.53 0 0 0 0 1.06h.54a.53.53 0 0 0 0-1.06z"/><path id="h78fs" d="M224.67 1567.47a.53.53 0 0 0-1.07 0v.53a.53.53 0 0 0 1.07 0z"/><path id="h78ft" d="M224.13 1569.6c-.3 0-.53.24-.53.53v.54a.53.53 0 0 0 1.07 0v-.54c0-.3-.24-.53-.54-.53z"/><path id="h78fu" d="M222.53 1569.6h.54a.53.53 0 1 0 0-1.07h-.54a.53.53 0 1 0 0 1.07z"/><path id="h78fv" d="M225.2 1569.6h.53a.53.53 0 0 0 0-1.07h-.53a.53.53 0 0 0 0 1.07z"/><path id="h78fw" d="M229.47 1550.4c-.3 0-.54.24-.54.53v.54a.53.53 0 1 0 1.07 0v-.54c0-.3-.24-.53-.53-.53z"/><path id="h78fx" d="M229.47 1552.53c-.3 0-.54.24-.54.54v4.26a.53.53 0 1 0 1.07 0v-4.26c0-.3-.24-.54-.53-.54z"/></defs><g><g transform="translate(-222 -1544)"><g><use fill="#24d39b" xlink:href="#h78fa"/></g><g><use fill="#24d39b" xlink:href="#h78fb"/></g><g><use fill="#24d39b" xlink:href="#h78fc"/></g><g><use fill="#24d39b" xlink:href="#h78fd"/></g><g><use fill="#24d39b" xlink:href="#h78fe"/></g><g><use fill="#24d39b" xlink:href="#h78ff"/></g><g><use fill="#24d39b" xlink:href="#h78fg"/></g><g><use fill="#24d39b" xlink:href="#h78fh"/></g><g><use fill="#24d39b" xlink:href="#h78fi"/></g><g><use fill="#24d39b" xlink:href="#h78fj"/></g><g><use fill="#24d39b" xlink:href="#h78fk"/></g><g><use fill="#24d39b" xlink:href="#h78fl"/></g><g><use fill="#24d39b" xlink:href="#h78fm"/></g><g><use fill="#24d39b" xlink:href="#h78fn"/></g><g><use fill="#24d39b" xlink:href="#h78fo"/></g><g><use fill="#24d39b" xlink:href="#h78fp"/></g><g><use fill="#24d39b" xlink:href="#h78fq"/></g><g><use fill="#24d39b" xlink:href="#h78fr"/></g><g><use fill="#24d39b" xlink:href="#h78fs"/></g><g><use fill="#24d39b" xlink:href="#h78ft"/></g><g><use fill="#24d39b" xlink:href="#h78fu"/></g><g><use fill="#24d39b" xlink:href="#h78fv"/></g><g><use fill="#24d39b" xlink:href="#h78fw"/></g><g><use fill="#24d39b" xlink:href="#h78fx"/></g></g></g></svg>