<svg xmlns="http://www.w3.org/2000/svg" xmlns:xlink="http://www.w3.org/1999/xlink" width="201" height="43" viewBox="0 0 201 43"><defs><path id="4w51a" d="M163.35 49.69l-19.3-10.72 19.3-10.31zm-13.76.9L128.3 38.95l21.29-11.2v3.6l-14.62 7.8 14.62 7.07zm-15.65-.43l-20.68-11 20.68-11.39v4.45l-12.82 6.94 12.82 6.73zm19.45-20.72v-7.95l-15.32 8.4v-8.4L106 39.31l31.88 17.51-.1-8.92 15.57 8.93V48.7l14.53 8.12V21.5z"/><path id="4w51b" d="M114.34 39.15l19.09-10.52v3.27l-13.4 7.26 13.4 7.03v3.11z"/><path id="4w51c" d="M129.39 38.97l19.68-10.35v2.43l-15.23 8.13 15.23 7.37v3.17z"/><path id="4w51d" d="M129.66 38.97l19.28-10.14v2.14l-15.39 8.21 15.4 7.45v2.87z"/><path id="4w51e" d="M145.12 38.98l17.71-9.46v19.3z"/><path id="4w51f" d="M120.2 47.75l13.69 7.44-13.69 7.66z"/><path id="4w51g" d="M119.8 50.9v11.25l-10.16-5.48z"/><path id="4w51h" d="M120.14 30.9l10.07-5.6-10.18-5.3z"/><path id="4w51i" d="M168.38 32.82V43.6l10.29-5.38z"/><path id="4w51j" d="M144.39 51.6v3.89l-6.56-3.88-.04-3.72z"/><path id="4w51k" d="M196.24 38.7a4.71 4.71 0 0 0 3.37-8.07 4.73 4.73 0 0 0-8.1 3.35v4.71zm-5.73-10.29a8.3 8.3 0 0 1 11.47 0 7.42 7.42 0 0 1 2.42 5.57c0 2.17-.8 4.02-2.4 5.55a8.05 8.05 0 0 1-5.76 2.28h-8.13v-7.84c0-2.17.8-4.02 2.4-5.56z"/><path id="4w51l" d="M220.34 41.8c-.89.02-1.75-.33-2.38-.96-.64-.6-1-1.45-1-2.33v-3h-7.48v6.3c-.9.01-1.75-.34-2.38-.97-.65-.6-1-1.45-1-2.33V26.1c.9-.02 1.75.33 2.38.97.65.6 1 1.44 1 2.32v3h7.49v-6.3a3.3 3.3 0 0 1 2.4.97c.63.6.99 1.45.97 2.33z"/><path id="4w51m" d="M225.79 38.5c0 .89-.35 1.73-1 2.34-.63.63-1.48.98-2.38.97v-7.87c0-2.18.8-4.03 2.4-5.55a8.03 8.03 0 0 1 5.74-2.28h4.74c.01.83-.32 1.63-.93 2.2-.6.6-1.42.93-2.26.92h-1.55a4.6 4.6 0 0 0-3.37 1.38c-.9.87-1.4 2.08-1.39 3.33z"/><path id="4w51n" d="M248.77 29.4a3.14 3.14 0 0 1 1-2.33 3.28 3.28 0 0 1 2.37-.97v7.84c0 2.17-.8 4.02-2.39 5.56a7.95 7.95 0 0 1-5.72 2.3 7.98 7.98 0 0 1-5.75-2.3 7.45 7.45 0 0 1-2.39-5.56V26.1c.9-.02 1.75.33 2.38.97.64.6 1 1.44 1 2.32v4.54a4.76 4.76 0 0 0 8.11 3.34 4.6 4.6 0 0 0 1.39-3.33z"/><path id="4w51o" d="M266.98 33.94a4.72 4.72 0 0 0-4.75-4.72h-4.74v4.72a4.74 4.74 0 1 0 9.5 0zm-9.5-8.45v.62h4.76c2.24 0 4.16.76 5.76 2.28a7.35 7.35 0 0 1 2.4 5.55c0 2.17-.8 4.02-2.42 5.56a8.3 8.3 0 0 1-11.48 0 7.44 7.44 0 0 1-2.4-5.56V22.19c.9 0 1.76.34 2.38.98.65.6 1.01 1.44 1 2.32z"/><path id="4w51p" d="M280.2 29.23a4.53 4.53 0 0 0-3.36 1.4 4.71 4.71 0 0 0 3.37 8.06 4.6 4.6 0 0 0 3.37-1.38c.9-.88 1.4-2.08 1.39-3.34a4.76 4.76 0 0 0-4.76-4.75zm0-3.12c2.15-.04 4.21.8 5.74 2.3a7.44 7.44 0 0 1 2.4 5.57c0 2.17-.8 4.02-2.4 5.55a8.03 8.03 0 0 1-5.74 2.28 8 8 0 0 1-5.72-2.28 7.39 7.39 0 0 1-2.4-5.55c0-2.17.8-4.03 2.4-5.57a7.95 7.95 0 0 1 5.72-2.3z"/><path id="4w51q" d="M293.42 41.8h-3.38V26.1c.9 0 1.76.34 2.38.98.65.6 1 1.44 1 2.32v3.16h4.46c1.26.02 2.48-.49 3.35-1.4.9-.88 1.4-2.09 1.39-3.34v-1.48h3.37v1.47c0 1.23-.3 2.45-.87 3.54a7.99 7.99 0 0 1-2.42 2.78 7.98 7.98 0 0 1 2.43 2.78c.57 1.08.87 2.3.87 3.52v1.38h-3.37v-1.38a4.61 4.61 0 0 0-1.4-3.33 4.53 4.53 0 0 0-3.35-1.41h-4.46z"/></defs><g><g transform="translate(-106 -20)"><g><use fill="#1376ba" xlink:href="#4w51a"/></g><g><use fill="#88c542" xlink:href="#4w51b"/></g><g><use fill="#90c840" xlink:href="#4w51c"/></g><g><use fill="#88c542" xlink:href="#4w51d"/></g><g><use fill="#88c542" xlink:href="#4w51e"/></g><g><use fill="#88c542" xlink:href="#4w51f"/></g><g><use fill="#88c542" xlink:href="#4w51g"/></g><g><use fill="#88c542" xlink:href="#4w51h"/></g><g><use fill="#88c542" xlink:href="#4w51i"/></g><g><use fill="#88c542" xlink:href="#4w51j"/></g><g><use fill="#1077be" xlink:href="#4w51k"/></g><g><use fill="#1077be" xlink:href="#4w51l"/></g><g><use fill="#1077be" xlink:href="#4w51m"/></g><g><use fill="#1077be" xlink:href="#4w51n"/></g><g><use fill="#1077be" xlink:href="#4w51o"/></g><g><use fill="#1077be" xlink:href="#4w51p"/></g><g><use fill="#1077be" xlink:href="#4w51q"/></g><g/></g></g></svg>