<svg xmlns="http://www.w3.org/2000/svg" xmlns:xlink="http://www.w3.org/1999/xlink" viewBox="0 0 1561 385">
  <defs>
    <style>
      .cls-1 {
        clip-path: url(#clip-logo_v3);
      }

      .cls-2 {
        fill: #88c542;
      }

      .cls-3 {
        fill: #314a9b;
      }

      .cls-4 {
        fill: #fff;
      }
    </style>
    <clipPath id="clip-logo_v3">
      <rect width="1561" height="385"/>
    </clipPath>
  </defs>
  <g id="logo_v3" class="cls-1">
    <g id="Group_3" data-name="Group 3" transform="translate(-21.154 -7.33)">
      <path id="Path_28" data-name="Path 28" class="cls-2" d="M259.5,330.58l98.637-59.68,2.4,115.269Z" transform="translate(-25.89 -81.325)"/>
      <path id="Path_29" data-name="Path 29" class="cls-3" d="M295.657,379.422,70.1,249.211,295.657,119Z" transform="translate(-4.946 -64.528)"/>
      <path id="Path_30" data-name="Path 30" class="cls-4" d="M275.1,340.457,127.9,255.428,275.1,170.4Z" transform="translate(-11.338 -70.212)"/>
      <path id="Path_31" data-name="Path 31" class="cls-2" d="M272.57,334.938,136.4,256.225,272.57,177.6Z" transform="translate(-12.278 -71.008)"/>
      <path id="Path_32" data-name="Path 32" class="cls-3" d="M416.757,379.422,191.2,249.211,416.757,119Z" transform="translate(-18.338 -64.528)"/>
      <path id="Path_33" data-name="Path 33" class="cls-2" d="M170.065,444.816,99,403.9l71.065-41Z" transform="translate(-8.142 -91.499)"/>
      <path id="Path_34" data-name="Path 34" class="cls-2" d="M182.889,185.1l-.089-82,71.065,41Z" transform="translate(-17.409 -62.77)"/>
      <path id="Path_35" data-name="Path 35" class="cls-2" d="M182.8,335.5l96.5,55.767-96.5,55.678Z" transform="translate(-17.409 -88.469)"/>
      <path id="Path_36" data-name="Path 36" class="cls-4" d="M396.3,340.457,249.1,255.428,396.3,170.4Z" transform="translate(-24.74 -70.212)"/>
      <path id="Path_37" data-name="Path 37" class="cls-2" d="M393.859,334.938,257.6,256.225,393.859,177.6Z" transform="translate(-25.68 -71.008)"/>
      <path id="Path_38" data-name="Path 38" class="cls-3" d="M530.468,379.422,305,249.211,530.468,119Z" transform="translate(-30.922 -64.528)"/>
      <path id="Path_39" data-name="Path 39" class="cls-4" d="M512,340.457,364.8,255.428,512,170.4Z" transform="translate(-37.534 -70.212)"/>
      <path id="Path_40" data-name="Path 40" class="cls-2" d="M509.559,334.938,373.3,256.225,509.559,177.6Z" transform="translate(-38.474 -71.008)"/>
      <path id="Path_41" data-name="Path 41" class="cls-2" d="M564.7,209l70.976,41L564.7,291Z" transform="translate(-59.639 -74.48)"/>
      <g id="Group_1" data-name="Group 1" transform="translate(663.791 58.766)">
        <path id="Path_1" data-name="Path 1" class="cls-3" d="M772.966,170.944a61.107,61.107,0,0,1,85.3,0q17.877,17.344,17.877,41.8,0,24.548-17.877,41.714-17.878,17.21-42.781,17.166H755v-58.88Q755.133,188.332,772.966,170.944Zm42.6,77.291a33.565,33.565,0,0,0,24.993-10.406,34.311,34.311,0,0,0,10.228-24.993,34.859,34.859,0,0,0-10.228-25.171,34.8,34.8,0,0,0-49.985,0,34.713,34.713,0,0,0-10.228,25.171v35.4Z" transform="translate(-755 -124.249)"/>
        <path id="Path_2" data-name="Path 2" class="cls-3" d="M1008.041,271.715a24.174,24.174,0,0,1-17.7-7.293,23.862,23.862,0,0,1-7.382-17.522V224.309H927.282v47.406a24.174,24.174,0,0,1-17.7-7.293A23.862,23.862,0,0,1,902.2,246.9V153.6a24.174,24.174,0,0,1,17.7,7.293,23.863,23.863,0,0,1,7.382,17.522v22.591h55.678V153.6a24.5,24.5,0,0,1,17.788,7.2,23.638,23.638,0,0,1,7.293,17.522Z" transform="translate(-771.278 -124.249)"/>
        <path id="Path_3" data-name="Path 3" class="cls-3" d="M1060.182,246.911a25.054,25.054,0,0,1-25.082,24.815V212.58q0-24.548,17.877-41.714a59.313,59.313,0,0,1,42.6-17.166H1130.8a23.536,23.536,0,0,1-23.748,23.481H1095.58a33.9,33.9,0,0,0-25.082,10.406,34.394,34.394,0,0,0-10.317,24.993Z" transform="translate(-785.974 -124.26)"/>
        <path id="Path_4" data-name="Path 4" class="cls-3" d="M1240.1,178.415a25.054,25.054,0,0,1,25.082-24.815v58.88c0,16.365-5.959,30.24-17.788,41.8a61,61,0,0,1-85.206,0q-17.744-17.344-17.788-41.8V153.6a24.174,24.174,0,0,1,17.7,7.293,23.863,23.863,0,0,1,7.382,17.522V212.48A34.943,34.943,0,0,0,1179.8,237.65a34.8,34.8,0,0,0,49.985,0,35.037,35.037,0,0,0,10.317-25.082Z" transform="translate(-798.06 -124.249)"/>
        <path id="Path_5" data-name="Path 5" class="cls-3" d="M1318.393,145.415v4.536h35.4q24.948,0,42.781,17.166,17.878,17.21,17.877,41.714c0,16.365-5.959,30.24-17.877,41.8a61.107,61.107,0,0,1-85.3,0q-17.877-17.344-17.877-41.8V120.6a24.174,24.174,0,0,1,17.7,7.293A23.92,23.92,0,0,1,1318.393,145.415Zm70.62,63.416a34.311,34.311,0,0,0-10.228-24.993,33.9,33.9,0,0,0-25.082-10.406h-35.31v35.4A34.859,34.859,0,0,0,1328.621,234a35.011,35.011,0,0,0,50.163,0A34.714,34.714,0,0,0,1389.013,208.83Z" transform="translate(-814.537 -120.6)"/>
        <path id="Path_6" data-name="Path 6" class="cls-3" d="M1500.5,153.6a58.825,58.825,0,0,1,42.6,17.344q17.877,17.344,17.877,41.8,0,24.548-17.877,41.714a59.313,59.313,0,0,1-42.6,17.166q-24.815,0-42.514-17.166-17.744-17.21-17.788-41.714c0-16.365,5.959-30.24,17.788-41.8A58.769,58.769,0,0,1,1500.5,153.6Zm0,23.481a33.4,33.4,0,0,0-24.993,10.584,34.714,34.714,0,0,0-10.228,25.171,34.311,34.311,0,0,0,10.228,24.993,35.322,35.322,0,0,0,50.074,0,34.394,34.394,0,0,0,10.317-24.993,34.943,34.943,0,0,0-10.317-25.171A33.729,33.729,0,0,0,1500.5,177.081Z" transform="translate(-830.77 -124.249)"/>
        <path id="Path_7" data-name="Path 7" class="cls-3" d="M1612.082,271.715H1587V153.6a24.174,24.174,0,0,1,17.7,7.293,23.863,23.863,0,0,1,7.382,17.522v23.747h33.175a33.481,33.481,0,0,0,24.9-10.584,35.037,35.037,0,0,0,10.317-25.082V155.468h25.082V166.5a56.255,56.255,0,0,1-6.493,26.594,60.587,60.587,0,0,1-17.966,20.9,58.892,58.892,0,0,1,17.966,20.9,56.161,56.161,0,0,1,6.493,26.5v10.317h-25.17V261.4a35.036,35.036,0,0,0-10.317-25.082,33.292,33.292,0,0,0-24.9-10.584h-33.176v45.983Z" transform="translate(-847.003 -124.249)"/>
      </g>
      <g id="Group_2" data-name="Group 2" transform="translate(664.324 249.991)">
        <path id="Path_8" data-name="Path 8" class="cls-3" d="M755.6,397.5V340.4h9.339v57.1H755.6Z" transform="translate(-755.6 -336.131)"/>
        <path id="Path_9" data-name="Path 9" class="cls-3" d="M822.667,399.126h-9.25V372.533c0-3.38-.712-5.781-2.046-7.471-1.334-1.6-3.469-2.49-6.4-2.49q-5.87,0-8.538,3.469c-1.779,2.313-2.668,6.137-2.668,11.563v21.524H784.6V355.9h7.2l1.334,5.692h.445a13.246,13.246,0,0,1,5.514-4.8,18.192,18.192,0,0,1,8-1.69c10.406,0,15.565,5.248,15.565,15.832Z" transform="translate(-758.807 -337.756)"/>
        <path id="Path_10" data-name="Path 10" class="cls-3" d="M865.549,360.682H854.965V396.97h-9.25V360.682H838.6v-4.269l7.115-2.846V350.72c0-5.07,1.156-8.894,3.558-11.385s6.048-3.736,10.94-3.736a29.286,29.286,0,0,1,9.517,1.6l-2.4,6.937a21.539,21.539,0,0,0-6.493-1.067c-2.046,0-3.647.623-4.536,1.957-.978,1.245-1.423,3.2-1.423,5.781v2.846h10.584v7.026Z" transform="translate(-764.778 -335.6)"/>
        <path id="Path_11" data-name="Path 11" class="cls-3" d="M917.824,377.424c0,7.026-1.779,12.541-5.425,16.543s-8.627,5.959-15.12,5.959a20.094,20.094,0,0,1-10.673-2.757,17.861,17.861,0,0,1-7.115-7.827A26.431,26.431,0,0,1,877,377.424c0-7.026,1.779-12.452,5.425-16.454s8.627-5.87,15.209-5.87c6.226,0,11.207,2.046,14.853,6.048Q917.824,367.152,917.824,377.424Zm-31.4,0c0,9.962,3.647,14.942,11.029,14.942q10.94,0,10.94-14.942c0-9.873-3.647-14.853-11.029-14.853-3.825,0-6.671,1.245-8.361,3.824C887.228,368.975,886.428,372.622,886.428,377.424Z" transform="translate(-769.024 -337.756)"/>
        <path id="Path_12" data-name="Path 12" class="cls-3" d="M952.979,391.35a22.776,22.776,0,0,0,6.76-1.067v6.937a21.025,21.025,0,0,1-3.913,1.156,23.077,23.077,0,0,1-4.981.445c-8.716,0-13.075-4.625-13.075-13.786v-23.3H931.9v-4.091l6.315-3.38,3.113-9.161h5.692v9.695h12.274v6.937H947.02v23.125c0,2.224.534,3.824,1.69,4.892A5.77,5.77,0,0,0,952.979,391.35Z" transform="translate(-775.095 -336.65)"/>
        <path id="Path_13" data-name="Path 13" class="cls-3" d="M994.135,399.938q-10.139,0-15.743-5.87c-3.736-3.913-5.692-9.339-5.692-16.187,0-7.026,1.779-12.63,5.248-16.632s8.361-6.048,14.5-6.048c5.692,0,10.228,1.69,13.519,5.159s4.981,8.272,4.981,14.32v4.981H982.128c.089,4.18,1.245,7.382,3.38,9.695,2.135,2.224,5.159,3.38,9.072,3.38a35.719,35.719,0,0,0,7.115-.712,33.542,33.542,0,0,0,7.115-2.4v7.471a25.087,25.087,0,0,1-6.76,2.224A51.069,51.069,0,0,1,994.135,399.938Zm-1.69-37.889a9.181,9.181,0,0,0-7.026,2.757c-1.779,1.868-2.846,4.536-3.113,8.094h19.656c-.089-3.558-.889-6.315-2.579-8.094A9.168,9.168,0,0,0,992.445,362.049Z" transform="translate(-779.607 -337.767)"/>
        <path id="Path_14" data-name="Path 14" class="cls-3" d="M1047.212,399.927c-6.582,0-11.474-1.868-14.942-5.692-3.38-3.824-5.07-9.339-5.07-16.454q0-10.94,5.337-16.81c3.558-3.913,8.716-5.87,15.387-5.87a28.867,28.867,0,0,1,12.274,2.579l-2.757,7.382a27.864,27.864,0,0,0-9.606-2.224c-7.471,0-11.207,4.981-11.207,14.853,0,4.8.889,8.449,2.757,10.94a9.806,9.806,0,0,0,8.182,3.647,23.482,23.482,0,0,0,11.651-3.024v8a15.748,15.748,0,0,1-5.248,2.046A35.01,35.01,0,0,1,1047.212,399.927Z" transform="translate(-785.634 -337.756)"/>
        <path id="Path_15" data-name="Path 15" class="cls-3" d="M1115.456,397.025h-9.25V370.432c0-3.38-.712-5.781-2.046-7.471-1.334-1.6-3.469-2.49-6.4-2.49q-5.737,0-8.538,3.469c-1.779,2.313-2.757,6.137-2.757,11.562v21.435H1077.3V336.1h9.161v15.476c0,2.49-.178,5.159-.445,7.916h.623a12.463,12.463,0,0,1,5.247-4.8,16.655,16.655,0,0,1,7.827-1.69c10.5,0,15.743,5.248,15.743,15.832Z" transform="translate(-791.174 -335.655)"/>
        <path id="Path_16" data-name="Path 16" class="cls-3" d="M1196.955,381.825a14.334,14.334,0,0,1-5.514,11.918c-3.647,2.846-8.716,4.358-15.209,4.358s-11.74-.978-15.832-3.024v-8.805a41.4,41.4,0,0,0,8.272,2.935,35.068,35.068,0,0,0,8.183,1.067c3.736,0,6.4-.712,8.183-2.135a6.881,6.881,0,0,0,2.668-5.692,7.16,7.16,0,0,0-2.4-5.425c-1.6-1.512-4.981-3.2-9.962-5.248-5.248-2.135-8.894-4.536-11.029-7.2a15.223,15.223,0,0,1-3.2-9.784,13.757,13.757,0,0,1,5.07-11.3c3.38-2.757,7.916-4.091,13.608-4.091a39.953,39.953,0,0,1,16.365,3.558l-2.935,7.649a35.642,35.642,0,0,0-13.608-3.2c-3.024,0-5.336.623-6.849,1.957a6.35,6.35,0,0,0-2.312,5.248,7.4,7.4,0,0,0,.978,3.825,10.141,10.141,0,0,0,3.113,3.024,53.1,53.1,0,0,0,7.738,3.736,44.558,44.558,0,0,1,9.25,4.892,13.7,13.7,0,0,1,4.269,5.159A15.277,15.277,0,0,1,1196.955,381.825Z" transform="translate(-800.363 -336.02)"/>
        <path id="Path_17" data-name="Path 17" class="cls-3" d="M1234.035,399.938q-10.139,0-15.743-5.87c-3.824-3.913-5.692-9.339-5.692-16.187,0-7.026,1.779-12.63,5.247-16.632s8.361-6.048,14.5-6.048c5.692,0,10.228,1.69,13.519,5.159s4.981,8.272,4.981,14.32v4.981h-28.817c.089,4.18,1.245,7.382,3.38,9.695s5.159,3.38,9.072,3.38a35.718,35.718,0,0,0,7.115-.712,33.541,33.541,0,0,0,7.115-2.4v7.471a25.087,25.087,0,0,1-6.76,2.224A51.068,51.068,0,0,1,1234.035,399.938Zm-1.69-37.889a9.181,9.181,0,0,0-7.026,2.757c-1.779,1.868-2.846,4.536-3.113,8.094h19.656c-.089-3.558-.89-6.315-2.579-8.094A9.168,9.168,0,0,0,1232.345,362.049Z" transform="translate(-806.135 -337.767)"/>
        <path id="Path_18" data-name="Path 18" class="cls-3" d="M1291.969,355.1a21.24,21.24,0,0,1,4.536.356l-.889,8.538a15.606,15.606,0,0,0-4.091-.445,11.6,11.6,0,0,0-8.894,3.558,13.228,13.228,0,0,0-3.38,9.339v22.591H1270V355.9h7.2l1.245,7.649h.445a16.978,16.978,0,0,1,5.6-6.137A13.447,13.447,0,0,1,1291.969,355.1Z" transform="translate(-812.483 -337.756)"/>
        <path id="Path_19" data-name="Path 19" class="cls-3" d="M1320.554,399.226,1304.1,356h9.695l8.805,25.171a52.673,52.673,0,0,1,2.757,10.228h.356a74,74,0,0,1,2.757-10.228L1337.275,356h9.784L1330.6,399.226Z" transform="translate(-816.253 -337.856)"/>
        <path id="Path_20" data-name="Path 20" class="cls-3" d="M1361.8,342.459a4.658,4.658,0,0,1,5.159-5.159,5.05,5.05,0,0,1,3.735,1.334,5.13,5.13,0,0,1,1.334,3.824,5.192,5.192,0,0,1-1.334,3.736,5.05,5.05,0,0,1-3.735,1.334,5.13,5.13,0,0,1-3.825-1.334A5.192,5.192,0,0,1,1361.8,342.459Zm9.695,54.7h-9.161V353.932h9.161Z" transform="translate(-822.634 -335.788)"/>
        <path id="Path_21" data-name="Path 21" class="cls-3" d="M1407.312,399.927c-6.582,0-11.474-1.868-14.942-5.692-3.38-3.824-5.07-9.339-5.07-16.454q0-10.94,5.337-16.81c3.558-3.913,8.716-5.87,15.387-5.87a28.867,28.867,0,0,1,12.274,2.579l-2.757,7.382a27.864,27.864,0,0,0-9.606-2.224c-7.471,0-11.207,4.981-11.207,14.853,0,4.8.89,8.449,2.757,10.94a9.806,9.806,0,0,0,8.183,3.647,23.482,23.482,0,0,0,11.651-3.024v8a15.747,15.747,0,0,1-5.248,2.046A35.738,35.738,0,0,1,1407.312,399.927Z" transform="translate(-825.454 -337.756)"/>
        <path id="Path_22" data-name="Path 22" class="cls-3" d="M1456.035,399.938q-10.139,0-15.743-5.87c-3.824-3.913-5.692-9.339-5.692-16.187,0-7.026,1.779-12.63,5.247-16.632s8.361-6.048,14.5-6.048c5.692,0,10.228,1.69,13.519,5.159s4.981,8.272,4.981,14.32v4.981h-28.817c.089,4.18,1.245,7.382,3.38,9.695s5.159,3.38,9.072,3.38a35.718,35.718,0,0,0,7.115-.712,33.544,33.544,0,0,0,7.115-2.4v7.471a25.087,25.087,0,0,1-6.76,2.224A51.07,51.07,0,0,1,1456.035,399.938Zm-1.69-37.889a9.181,9.181,0,0,0-7.026,2.757c-1.779,1.868-2.846,4.536-3.113,8.094h19.656c-.089-3.558-.89-6.315-2.579-8.094A9.168,9.168,0,0,0,1454.345,362.049Z" transform="translate(-830.684 -337.767)"/>
        <path id="Path_23" data-name="Path 23" class="cls-3" d="M1520.73,386.774c0,4.18-1.512,7.471-4.625,9.695s-7.471,3.38-13.252,3.38-10.406-.889-13.875-2.579v-7.916a34.55,34.55,0,0,0,14.231,3.558c5.692,0,8.449-1.69,8.449-5.159a4.172,4.172,0,0,0-.978-2.757,10.406,10.406,0,0,0-3.113-2.224c-1.423-.712-3.469-1.69-5.959-2.668-4.981-1.957-8.361-3.824-10.14-5.781a10.681,10.681,0,0,1-2.668-7.471,9.915,9.915,0,0,1,4.447-8.627c3.024-2.046,7.026-3.024,12.185-3.024a34.688,34.688,0,0,1,14.409,3.113l-2.935,6.937c-4.625-1.957-8.627-2.935-11.74-2.935-4.8,0-7.293,1.423-7.293,4.18a4.317,4.317,0,0,0,1.868,3.469c1.245.978,4,2.224,8.272,3.913a38.631,38.631,0,0,1,7.738,3.824,10.758,10.758,0,0,1,3.558,4A11.279,11.279,0,0,1,1520.73,386.774Z" transform="translate(-836.678 -337.767)"/>
        <path id="Path_24" data-name="Path 24" class="cls-3" d="M1565.7,397.5V340.4h9.339v49.1h24.192v8H1565.7Z" transform="translate(-845.181 -336.131)"/>
        <path id="Path_25" data-name="Path 25" class="cls-3" d="M1631.579,391.35a22.776,22.776,0,0,0,6.76-1.067v6.937a21.023,21.023,0,0,1-3.914,1.156,30.5,30.5,0,0,1-4.981.445c-8.716,0-13.074-4.625-13.074-13.786v-23.3h-5.87v-4.091l6.315-3.38,3.113-9.161h5.692v9.695h12.274v6.937H1625.62v23.125c0,2.224.534,3.824,1.69,4.892A5.633,5.633,0,0,0,1631.579,391.35Z" transform="translate(-850.135 -336.65)"/>
        <path id="Path_26" data-name="Path 26" class="cls-3" d="M1668.466,397.837c-5.426,0-9.606-1.957-12.63-5.87s-4.536-9.428-4.536-16.454c0-7.115,1.512-12.63,4.625-16.543a15.258,15.258,0,0,1,12.719-5.959c5.692,0,9.961,2.135,12.986,6.315h.445a53.212,53.212,0,0,1-.623-7.382V336.2h9.25v60.836h-7.2l-1.6-5.692h-.445A15.058,15.058,0,0,1,1668.466,397.837Zm2.4-7.471q5.6,0,8.272-3.2c1.69-2.135,2.579-5.6,2.668-10.317v-1.334c0-5.425-.889-9.339-2.668-11.651s-4.536-3.469-8.361-3.469a8.6,8.6,0,0,0-7.471,3.913c-1.779,2.579-2.579,6.315-2.579,11.207,0,4.8.889,8.449,2.579,10.94A8.637,8.637,0,0,0,1670.867,390.366Z" transform="translate(-854.647 -335.666)"/>
        <path id="Path_27" data-name="Path 27" class="cls-3" d="M1711.4,398.37a6.023,6.023,0,0,1,1.512-4.358,5.8,5.8,0,0,1,4.269-1.512,5.708,5.708,0,0,1,4.358,1.6,7.037,7.037,0,0,1,0,8.716,5.578,5.578,0,0,1-4.358,1.6,5.375,5.375,0,0,1-4.269-1.6A6.4,6.4,0,0,1,1711.4,398.37Z" transform="translate(-861.293 -341.892)"/>
      </g>
    </g>
  </g>
</svg>
