<svg xmlns="http://www.w3.org/2000/svg" xmlns:xlink="http://www.w3.org/1999/xlink" width="120" height="61" viewBox="0 0 120 61"><defs><path id="1hoba" d="M779.2 3089.15l-59.25 7.4-34.7 22.6 34.7 22.6 55.55-6.93z"/><path id="1hobb" d="M664.43 3103.47l-3.7 45.68 59.22-7.4v-15.34l-2.31-1.45 2.31-1.46v-8.72l-2.31-1.45 2.31-1.46v-15.33z"/><path id="1hobc" d="M686.72 3118.3l-2.14 2.81a4.38 4.38 0 0 0-3.67-1.44 4.73 4.73 0 0 0-4.06 4.74c0 2.43 1.75 4.07 4.06 3.78 1.23-.15 2.65-1 3.67-2.16l2.16 2.02a10.15 10.15 0 0 1-6.02 3.41c-4.39.55-7.66-2.27-7.66-6.54 0-4.2 3.35-7.79 7.79-8.34 2.16-.27 4.41.4 5.87 1.73z"/><path id="1hobd" d="M687.62 3130.44v-14.58l3.7-.46v14.58z"/><path id="1hobe" d="M703.15 3128.5l-6.7-8.14v8.98l-3.48.43v-14.57l3.27-.41 6.72 8.16v-9l3.46-.43v14.58z"/><path id="1hobf" d="M712 3115.74v2.9l6.95-.87v2.92l-6.95.86v2.94l7.95-1v2.92l-11.66 1.45v-14.57l11.66-1.42v2.91z"/><path id="1hobg" d="M733.26 3110.16l-3.96 9.18-3.96-8.2-4.06.51v14.6l3.32-.42v-9.47l3.5 7.58 2.4-.3 3.5-8.45.03 9.47 3.27-.4v-14.6z"/><path id="1hobh" d="M743.25 3118.02l2.12-5.66 2.09 5.13zm18.36-4.41l4.8-7.56-4.34.54-2.81 4.6-2.81-3.9-4.31.54 4.87 6.52-4.13 6.41-5.49-12.34-3.8.48-6.3 15.35 3.82-.47 1.06-2.82 6.37-.8 1.04 2.56 6.53-.8 3.15-5.04 3.14 4.25 4.44-.55z"/></defs><g><g transform="translate(-660 -3089)"><g><use fill="#ffb037" xlink:href="#1hoba"/></g><g><use fill="#ffd237" xlink:href="#1hobb"/></g><g><g><use fill="#012231" xlink:href="#1hobc"/></g><g><use fill="#012231" xlink:href="#1hobd"/></g><g><use fill="#012231" xlink:href="#1hobe"/></g><g><use fill="#012231" xlink:href="#1hobf"/></g></g><g><use xlink:href="#1hobg"/></g><g><use xlink:href="#1hobh"/></g></g></g></svg>