<?xml version="1.0" standalone="no"?>
<!DOCTYPE svg PUBLIC "-//W3C//DTD SVG 20010904//EN"
 "http://www.w3.org/TR/2001/REC-SVG-20010904/DTD/svg10.dtd">
<svg version="1.0" xmlns="http://www.w3.org/2000/svg"
 width="80.000000pt" height="80.000000pt" viewBox="0 0 80.000000 80.000000"
 preserveAspectRatio="xMidYMid meet">
<metadata>
Created by potrace 1.11, written by Peter Selinger 2001-2013
</metadata>
<g transform="translate(0.000000,80.000000) scale(0.100000,-0.100000)"
fill="#000000" stroke="none">
<path d="M195 481 c-72 -42 -136 -80 -143 -84 -9 -6 31 -35 130 -91 l143 -83
3 33 c2 19 6 34 9 34 4 0 35 -16 70 -35 l63 -35 0 35 c0 35 7 43 26 27 5 -5
30 -21 57 -36 l47 -27 0 170 0 170 -59 -34 c-33 -19 -62 -35 -65 -35 -2 0 -6
15 -8 34 l-3 35 -65 -40 -65 -39 -5 38 -5 38 -130 -75z m95 -6 c0 -8 -25 -29
-55 -46 -30 -17 -55 -35 -55 -39 0 -5 25 -23 55 -40 36 -20 55 -38 55 -50 0
-16 -14 -11 -90 33 -49 28 -90 54 -90 57 1 6 161 99 173 100 4 0 7 -7 7 -15z
m140 2 c0 -7 -27 -27 -60 -45 -33 -19 -60 -37 -60 -42 0 -5 27 -24 60 -42 40
-22 60 -39 60 -52 0 -17 -2 -17 -22 -4 -13 8 -53 32 -90 53 -38 22 -68 42 -68
45 0 6 161 99 173 100 4 0 7 -6 7 -13z m130 -92 l0 -104 -90 52 c-49 29 -90
54 -90 57 1 6 161 98 173 99 4 1 7 -46 7 -104z"/>
</g>
</svg>
