<svg xmlns="http://www.w3.org/2000/svg" xmlns:xlink="http://www.w3.org/1999/xlink" width="33" height="31" viewBox="0 0 33 31"><defs><path id="a" d="M894.85 1562.5h-1.5V1548a.5.5 0 0 0-.5-.5h-26a.5.5 0 0 0-.5.5v14.5h-1.5v-16c0-.28.23-.5.5-.5h29c.28 0 .5.22.5.5zm-22-9v9h-.5v-9zm-.24-1l.74-1.73.74 1.73zm5.7 7c-.23-1.59-1.6-2.45-2.68-2.82l3.22-5.37v4.19h1v-4.2l3.23 5.38c-1.1.37-2.45 1.23-2.7 2.82zm2.04 2.5v.5h-2v-.5zm-2-1v-.5h2v.5zm9.5-11.5h-4a.5.5 0 0 0-.5.5v4.5h1v-4h3v2h-2v1h2v2.5h-2v1h2v2.5h-2v1h2v2h-3v-4h-1v4h-2v-2.5c0-2.04 2.48-2.49 2.58-2.5a.5.5 0 0 0 .35-.76l-4.5-7.5a.52.52 0 0 0-.86 0l-4.5 7.5a.5.5 0 0 0 .35.75c.1.02 2.58.47 2.58 2.51v2.5h-2v-4h-1v4h-.5v-9h.5v1h1v-1.5a.5.5 0 0 0-.04-.2l-1.5-3.5a.5.5 0 0 0-.92 0l-1.5 3.5a.5.5 0 0 0-.04.2v9.5h-4v-14h25v14h-4V1550a.5.5 0 0 0-.5-.5zm7 18.5h-30v-4.5h30zm-18.89 5l.8-4h6.18l.8 4zm9.4 1v1h-11v-1zm9-29h-29c-.84 0-1.5.67-1.5 1.5v22c0 .28.22.5.5.5h11.38l-.8 4h-1.09a.5.5 0 0 0-.5.5v1.5h-1v1h15v-1h-1v-1.5a.5.5 0 0 0-.5-.5h-1.09l-.8-4h11.4a.5.5 0 0 0 .5-.5v-22c0-.83-.68-1.5-1.5-1.5z"/><path id="b" d="M879.85 1566a.5.5 0 1 1 0-1 .5.5 0 0 1 0 1zm0-2a1.5 1.5 0 1 0 0 3 1.5 1.5 0 0 0 0-3z"/></defs><use fill="#24d39b" xlink:href="#a" transform="translate(-863 -1545)"/><use fill="#24d39b" xlink:href="#b" transform="translate(-863 -1545)"/></svg>