<svg xmlns="http://www.w3.org/2000/svg" xmlns:xlink="http://www.w3.org/1999/xlink" width="601" height="335" viewBox="0 0 601 335"><defs><path id="a" d="M1306.6 531.6s-11.55 50.8 6.75 85.44l18.3 34.46s4.61-86.33-25.05-119.9z"/><path id="b" d="M1307.3 664.29c1.07 6.22 2.5 12.61 5.7 18.12 3.19 5.5 7.98 10.3 14.2 11.72 2.84.71 5.69.71 8.53.53 3.2 0 6.4-.35 9.24-1.95 3.55-2.13 5.32-6.04 6.75-9.95a116.12 116.12 0 0 0 5.5-20.07c.71-3.9 1.25-8.17-.7-11.72-2.5-4.8-8.36-6.75-13.69-7.64-8.88-1.42-21.13-2.13-29.66 1.42-7.46 3.2-7.1 12.79-5.86 19.54z"/><path id="c" d="M1327.56 651.68c7.1.35 14.74-.71 19.18-3.02.89-.54 1.6-1.07 1.24-1.6-.53-.71-2.3-1.07-4.08-1.07-8.53-.88-17.94-1.24-26.29.18-12.08 1.78 3.37 5.15 9.95 5.5z"/><path id="d" d="M1323.83 519.16s-5.69 96.81 7.64 132.34c0 0 8.7-86.33-7.64-132.34z"/><path id="e" d="M1329.87 650.79h3.2c4.61-19.19 18.29-81.36 11-110.31 0 0-23.09 81.53-17.22 99.83 1.24 4.8 2.3 8.17 3.02 10.48z"/><path id="f" d="M922.38 558.06l-4.44-85.44s-22.03-1.24-28.43-1.24c-3.55 0-9.59 1.78-14.38 3.2-4.45 1.42-8.18 1.24-10.48 5.5l-36.06 69.1 22.2 2.13 7.46-8.34-3.73-5.69 13.5-31.8-.18 53.83z"/><path id="h" d="M867.31 492.7l-23.8 43.16 7.46 8.7s3.02.54 5.86-.35l1.24-1.42-3.73-5.69 13.5-31.8z"/><path id="i" d="M886.32 540.66c-.9-.36-8.35-4.62-13.86-4.62-5.5 0-12.26 5.86-12.26 5.86s-.88 3.02 2.85 2.49l6.21-.9s-6.4 3.38-2.13 4.1c4.27.53 22.56 0 22.56 0z"/><path id="j" d="M884.9 553.27h-71.06v-5.15h71.06a2.73 2.73 0 0 1 2.66 2.66c0 1.25-1.24 2.49-2.66 2.49z"/><path id="k" d="M865.36 553.27h-68.57a6.47 6.47 0 0 1-6.4-4.98l-12.07-45.65a6.68 6.68 0 0 1 6.4-8.35h59.85a6.47 6.47 0 0 1 6.4 4.98z"/><path id="m" d="M784.71 494.3a6.52 6.52 0 0 0-6.4 8.34l12.08 45.65a6.92 6.92 0 0 0 2.31 3.56l41.75-57.56z"/><path id="n" d="M825.03 527.87c.71 3.02-1.06 5.33-4.26 5.33-3.02 0-6.22-2.5-6.93-5.33-.7-3.02 1.07-5.33 4.27-5.33 3.2 0 6.21 2.3 6.92 5.33z"/><path id="o" d="M887.2 460.72c.54 1.25 4.98 18.12 4.98 18.12s1.6 2.84 5.15 2.49c3.73-.36 5.15-5.5 5.15-5.5l-6.4-21.33z"/><path id="p" d="M909.94 450.24c0 11.73-12.43 24.51-23.98 24.51-11.72 0-18.12-12.96-18.12-24.5a21.19 21.19 0 0 1 21.14-21.15 21.04 21.04 0 0 1 20.96 21.14z"/><path id="q" d="M890.58 473.51l-2.49 6.4 1.6 6.75 4.98-7.1 4.97 7.98 5.5-9.77-3.72-6.39s-1.78 4.26-5.87 5.15c-4.08 1.07-4.97-3.02-4.97-3.02z"/><path id="r" d="M894.67 479.73l-3.73 4.62 1.77 2.84-2.66 5.86.53 38.37 3.73 7.82 5.33-8.7-1.24-36.6-2.85-7.1 2.14-3.03z"/><path id="t" d="M920.6 490.39l1.24 67.5-31.8-.36z"/><path id="u" d="M917.94 472.62l2.84 63.6-29.49 6.04 4.09 7.63 42.1 2.49-5.69-62.88a18.34 18.34 0 0 0-10.3-15.1z"/><path id="v" d="M886.32 540.66l5.86.7 5.15 8.53-9.77.71z"/><path id="w" d="M857 569.61l-52.04 13.32 26.47 104.1 9.06-4.62-7.82-89.53 46.54-14.57-27 15.46.53 84.9h8.18s22.91-83.12 25.04-83.12c2.31 0 40.68-25.58 40.68-25.58z"/><path id="x" d="M803.36 695.02l36.24-2.49 1.06-11.37-38.72 8.7z"/><path id="y" d="M832.85 701.41l7.28.9 20.43-7.65.53-15.98h-8.17l-3.73 9.95-11.01 6.75z"/><path id="z" d="M867.13 442.78c-.89 1.6-1.6 3.38-1.06 4.97.7 1.96 3.2 2.67 5.33 2.85 3.55.35 7.28.53 10.83.53 2.49 0 4.8-.18 7.28-.71 3.91-.89 7.29-2.84 10.84-4.8 2.49-1.42 5.15-3.2 5.68-5.86.36-2.84-1.6-5.33-3.37-7.28a30.28 30.28 0 0 0-3.38-3.38c-3.2-2.3-7.28-2.84-11.19-2.3-9.77 1.42-16.52 7.81-20.96 15.98z"/><path id="A" d="M901.6 449.53c.35-1.06 1.77-1.78 2.84-1.24 1.06.35 1.77 1.42 1.95 2.66a5.83 5.83 0 0 1-.71 3.38c-.18.53-.53 1.06-.71 1.6-.18.53-.18.88-.18 1.42 0 2.13 0 4.08.18 6.21 1.77-.7 2.66-2.3 3.55-3.9 1.95-3.56 3.9-7.29 3.55-11.37-.17-3.38-1.77-6.4-3.55-9.24-.35-.53-.71-1.24-1.24-1.6a4 4 0 0 0-2.84-.35c-.9.35-1.78.88-2.67 1.42-.89.53-1.6 1.06-2.49 1.6-.7.53-1.6 1.06-2.13 1.95-.7 1.6.36 2.31 1.25 3.2.7.35-.18 10.66 3.2 4.26z"/><path id="B" d="M866.95 457.17c-1.06 0-1.95.35-2.3 1.07a3.7 3.7 0 0 0-.18 3.37c.89 2.66 3.73 4.8 6.21 4.8 1.07 0 1.96-.36 2.31-1.07a3.7 3.7 0 0 0 .18-3.37c-.89-2.67-3.73-4.8-6.22-4.8zm3.56 10.12c-2.84 0-5.86-2.3-6.93-5.32a4.58 4.58 0 0 1 .35-4.09 3.8 3.8 0 0 1 3.02-1.42c2.85 0 5.87 2.3 6.93 5.33.54 1.6.36 3.02-.35 4.08-.54.9-1.6 1.42-3.02 1.42z"/><path id="C" d="M880.99 457.17c-1.07 0-1.96.35-2.31 1.07a3.7 3.7 0 0 0-.18 3.37c.89 2.66 3.73 4.8 6.22 4.8 1.06 0 1.95-.36 2.3-1.07a3.7 3.7 0 0 0 .18-3.37c-.88-2.67-3.73-4.8-6.21-4.8zm3.55 10.12c-2.84 0-5.86-2.3-6.93-5.32a4.58 4.58 0 0 1 .36-4.09 3.8 3.8 0 0 1 3.02-1.42c2.84 0 5.86 2.3 6.93 5.33.53 1.6.35 3.02-.36 4.08-.53.9-1.6 1.42-3.02 1.42z"/><path id="D" d="M961.81 417.2c.18 3.38 1.95 6.57 1.07 9.77-.71 2.67-3.2 4.44-3.91 7.1-.89 3.03.7 6.05 2.13 8.71 1.24 2.31 3.02 4.8 5.5 4.8 1.07 0 2.14-.54 3.2-1.07l7.46-3.73a11 11 0 0 0 3.02-1.95c1.25-1.25 1.96-3.02 2.5-4.62 1.95-5.15 3.54-10.66 3.19-16.17-.36-5.5-3.38-11.19-8.7-13.32-2.85-1.06-11.37-2.13-13.86.36-1.07 1.06-.53 2.3-.71 3.73-.18 2.3-1.07 4.26-.89 6.4z"/><path id="E" d="M967.67 433.72l-2.48.71c-10.48 6.75-16.52 16.34-17.95 28.6l-5.32 86.33 7.99-3.55z"/><path id="F" d="M1020.6 433.19l-42.62-1.78c-3.56-.18-9.95 1.07-13.5 2.13l-5.51 2.5 9.6 45.64a90.9 90.9 0 0 0-12.62 48.85l5.15 62.35h47.78l6.04-65.72a90.3 90.3 0 0 0-7.28-39.26l-2.66-6.04z"/><path id="H" d="M969.27 451.48a16.38 16.38 0 0 0 4.97 5.51c2.85 1.6 6.4 1.96 9.6 1.24a29.2 29.2 0 0 0 9.06-3.9c5.15-3.02 9.94-6.58 13.85-11.2 2.67-3.2 4.62-7.99 2.49-11.54-1.42-2.3-4.09-3.38-6.75-4.09-13.86-3.9-43.7 4.09-33.22 23.98z"/><path id="I" d="M1002.31 410.8c0 11.38-12.08 26.83-23.45 26.83s-17.58-15.45-17.58-26.82c0-11.37 9.23-20.6 20.6-20.6a20.7 20.7 0 0 1 20.43 20.6z"/><path id="J" d="M1020.6 433.19l29.67 38.55a8.78 8.78 0 0 1-2.3 12.6l-34.65 21.15-4.26-6.75 23.8-19.01a4.2 4.2 0 0 0 .9-5.69l-17.95-25.57z"/><path id="K" d="M925.57 553.27h18.66c3.01 0 5.5-2.31 5.68-5.33l.18-2.13z"/><path id="L" d="M976.2 424.66c-.36-.7 4.97 13.5 4.97 13.5s1.25 5.86 6.04 4.44c4.98-1.42 1.96-22.2 1.25-22.38-.9-.18-11.9 5.69-12.26 4.44z"/><path id="M" d="M988.28 408.14c-9.6 5.86-19.54 11.73-30.55 12.44 2.48-3.02 1.95-7.46 2.48-11.55a22.12 22.12 0 0 1 10.13-15.99 22.6 22.6 0 0 1 18.83-2.13c2.3.89 4.44 2.13 5.86 4.09 4.08 5.86-2.31 10.48-6.75 13.14z"/><path id="N" d="M987.39 431.06c.71 3.02 2.49 5.68 2.84 8.88a17.6 17.6 0 0 1-.7 6.04c-.54 2.3-1.07 4.8-1.6 7.1 3.37-.7 6.39-2.3 8.87-4.44a34.59 34.59 0 0 0 12.26-32.5c-.53-3.38-1.78-6.75-3.02-9.95-.89-2.49-1.95-4.98-3.73-7.1-1.6-2.14-4.08-3.74-6.75-3.74-3.2 0-6.04 1.96-8 4.62a10.83 10.83 0 0 0-2.12 6.04c0 2.13.88 9.6 2.84 10.48 2.48-1.6 6.4-.18 7.28 2.67 1.6 4.44-2.3 5.32-4.97 6.75-3.02 1.6-3.91 1.6-3.2 5.15z"/><path id="O" d="M1009.24 417.56c1.95 1.6 4.26 2.66 6.04 4.44 1.77 1.77 3.02 4.44 1.95 6.93-.53 1.42-1.95 2.48-3.02 3.55-1.06 1.06-2.13 2.49-1.95 4.08a6.15 6.15 0 0 0 1.42 2.85c1.6 2.3 2.84 4.97 2.3 7.63a7.92 7.92 0 0 1-3.72 5.16 10.06 10.06 0 0 1-6.4 1.06c-1.24-.18-2.48-.53-3.73-.53-3.37.18-6.04 3.2-9.41 3.55a6.12 6.12 0 0 1-5.15-1.95 6.44 6.44 0 0 1-1.6-5.33c.53-3.02 3.2-5.33 5.68-7.1 2.49-1.96 5.15-4.27 5.51-7.29.35-2.3-.89-4.62-.53-6.93.35-3.37 3.55-5.86 4.26-9.06.36-1.77-.18-6.57 2.66-6.57 2.14.18 4.09 4.26 5.69 5.5z"/><path id="P" d="M984.73 413.83c-.54 1.06-1.43 2.13-2.14 3.2l-3.2 4.26c.72-2.84 1.07-5.69.72-8.53 0-.35-.18-.89 0-1.24.17-.9.89-1.42 1.6-1.78 1.06-.7 3.55-2.84 4.61-1.42.71 1.07-1.06 4.62-1.6 5.5z"/><path id="Q" d="M1009.77 492.52l-1.95 1.77 6.75 7.82z"/><path id="R" d="M1154.19 558.06l-4.44-85.44s-22.03-4.62-28.42-4.62c-3.56 0-9.6 1.78-14.4 3.2a18.4 18.4 0 0 0-10.47 8.88l-36.06 69.1 22.2 2.13 7.46-8.34-3.73-5.69 13.5-31.8-.18 53.83z"/><path id="S" d="M1151.17 447.93a21.08 21.08 0 0 1-21.14 21.14c-6.4 0-11.01-6.75-14.74-11.19-3.2-3.73-5.51-4.8-5.51-9.95 0-11.72 8.7-20.96 20.43-20.96a20.77 20.77 0 0 1 20.96 20.96z"/><path id="T" d="M1097.34 553.27h-73.9l-15.62-58.98h73.72z"/><path id="U" d="M1097.34 553.27h-71.58l-15.99-60.75 72.3 1.77z"/><path id="V" d="M1024.16 553.27V549h50.63v4.26z"/><path id="X" d="M1124.52 543.32l28.25-13.5-2.31-45.47-4.98.35-36.59 38.37s-5.5 14.21-9.41 25.58v10.48l38.01-.71z"/><path id="Y" d="M1077.63 539.6h-39.44l-8.7-33.4 39.79.88z"/><path id="Z" d="M1088.82 569.61l-52.05 13.32 26.47 104.1 9.06-4.62-7.82-89.53 46.54-14.57-27 15.46.54 84.9h8.17s22.91-83.12 25.04-83.12c2.31 0 40.68-25.58 40.68-25.58z"/><path id="aa" d="M1035.17 695.02l36.24-2.49 1.07-11.37-38.73 8.7z"/><path id="ab" d="M1116.88 476.89a55.84 55.84 0 0 0 2.31 12.08c.18.88.54 1.77 1.25 2.3 1.42 1.07 3.55.18 5.15-.88a27.74 27.74 0 0 0 7.1-6.58c1.25-1.6 2.5-3.37 2.85-5.5.35-1.96 0-4.44-1.6-5.69-2.49-2.13-7.64-1.95-10.66-2.13-4.44 0-6.93 1.78-6.4 6.4z"/><path id="ac" d="M1064.66 701.41l7.28.9 20.6-7.65.36-15.98h-8.17l-3.73 9.95-11.01 6.75z"/><path id="ad" d="M1122.21 458.59l-1.6 17.76s1.25 7.46 5.69 6.22c4.44-1.24 4.97-4.62 4.97-4.62l1.96-21.31z"/><path id="ae" d="M1138.02 441c3.38-.17 6.75-.35 9.77-1.77 3.02-1.42 5.5-4.44 5.5-7.64 0-3.37-3.54-6.4-6.56-5.5-.71.17-1.42.7-2.13.88-1.07.36-2.31 0-3.56-.35-8.52-2.5-18.12-4.27-26.11-.18a9.24 9.24 0 0 0-3.73 3.2c-.53 1.06-.71 2.48-.89 3.73-.35 3.37-.53 6.92-.7 10.3 2.3-1.24 4.61-2.67 6.92-3.73 2.3-1.07 3.9 0 6.4.53 4.97.71 10.12.71 15.1.53z"/><path id="af" d="M1118.13 435.32a8.05 8.05 0 0 0-6.22 1.78 19.4 19.4 0 0 0-2.84 8.88c.18 1.06.53 2.3.35 3.37 0 .71.36 1.78.71 3.02 1.25 1.78 3.2 3.02 5.16 5.33 0 .18.17.18.17.36 2.13-3.56 5.33-11.55 6.04-12.44.9-1.24 4.09-4.97 3.56-6.57-.54-1.6-5.51-3.37-6.93-3.73z"/><path id="ag" d="M1118.13 444.02c-.18-.17-.36-.53-.54-.7-.35-.18-.7-.18-1.06-.18-1.42 0-3.02.17-3.9 1.24a6.3 6.3 0 0 0-.72 1.6 11.5 11.5 0 0 0-.18 4.26c.18 2.13 1.25 4.62 3.38 4.98 1.24.35 2.66-.18 3.55-1.07 3.38-3.02 1.6-6.93-.53-10.13z"/><path id="ah" d="M1144.77 455.04c1.07-.18 2.13-.54 3.38-.18 1.06.18 2.13 1.07 2.13 2.3 0 .54-.18 1.07-.18 1.6-.35 1.6.36 3.38.89 4.98 1.24 3.38 2.13 7.64 0 10.66-1.95 2.84-5.86 3.55-9.24 3.55-10.3-.53-19.9-7.81-23.09-17.58-1.07-3.38-1.42-7.1-.35-10.48.35-1.07 1.24-2.31 2.3-1.78a12.8 12.8 0 0 0 6.75 9.41c6.4 2.67 11.37-1.06 17.41-2.48z"/><path id="ai" d="M1009.77 492.52l15.99 60.75h71.4l-15.1-58.98-72.29-1.77zm2.31 1.77l68.57 1.6 14.2 55.42H1027l-14.92-57.02"/><path id="aj" d="M1125.59 553.27h-101.43V549h101.43c1.24 0 2.13.88 2.13 2.13a2.3 2.3 0 0 1-2.13 2.13z"/><path id="ak" d="M1074.25 553.27h-50.09V549h50.1c1.24 0 2.12.88 2.12 2.13a2.3 2.3 0 0 1-2.13 2.13z"/><path id="al" d="M1149.75 472.62l-18.48 48.85-47.07 6.22 1.78 9.41 60.21-1.95 16.35-42.8c.88-2.14.88-4.45.35-6.58a18.65 18.65 0 0 0-9.6-11.2z"/><path id="am" d="M1084.2 527.69l-25.4-13.5s-1.42 1.95.7 3.73c1.96 1.6 8.36 6.4 8.36 6.4v3.72c2.13 6.93 8.7 10.13 15.8 9.42l2.32-.18z"/><path id="an" d="M1187.58 553.1h-30.2s-.88-2.14 3.91-3.03c4.8-.89 18.48-1.24 18.48-1.24l3.55-3.91 4.8 1.24z"/><path id="ao" d="M1212.45 460.54l-32.33 87.04 8 1.96 49.55-84.91s-1.42-5.5-9.76-10.84c-8.35-5.15-15.46 6.75-15.46 6.75z"/><path id="ap" d="M1213.34 420.58a21.18 21.18 0 0 0-29.13-6.4 21.66 21.66 0 0 0-9.6 16.34c-.35 3.2-.35 4.45 1.07 7.46 1.42 3.02 4.97 7.29 2.84 13.33-.53 1.42 0 3.55 1.6 4.26s3.2-1.07 4.8-1.24c3.02-.18 9.06 4.44 11.19 6.4.89.7 1.95 1.6 3.2 1.77a4.52 4.52 0 0 0 3.02-.71c4.61-2.49 7.46-7.29 9.77-11.9 2.13-4.44 4.08-9.06 4.44-13.86.88-5.15 0-10.66-3.2-15.45z"/><path id="aq" d="M1212.63 461.43c.89.9 1.95 1.96 3.2 1.78.53 0 1.06-.36 1.6-.71a28.99 28.99 0 0 0 3.55-3.02 4.4 4.4 0 0 0 1.42-2.49c0-.53-.18-1.06-.36-1.6-2.13-4.8-6.57-8.52-7.99-13.5-.71-2.3-.71-4.8-1.6-6.92-.89-2.14-2.66-4.45-4.97-4.45-1.42 0-2.67.71-3.91 1.43a13.82 13.82 0 0 0-5.5 12.07c.35 4.09 2.66 8 6.21 10.3 3.2 1.96 5.5 4.27 8.35 7.11z"/><path id="ar" d="M1184.2 414.18c-3.9 2.49-6.74 6.4-8.34 10.84 4.08 1.95 14.39-2.49 17.23-4.09a19.94 19.94 0 0 0 9.6 17.77c3.72 2.13 8.16 3.2 11.71 5.32.9-2.66 1.78-5.32 1.96-7.99a20.22 20.22 0 0 0-3.02-15.45 21.18 21.18 0 0 0-29.13-6.4z"/><path id="as" d="M1195.58 435.68c-1.25-2.14 0-5.16 2.3-6.4 2.31-1.06 5.16-.35 6.93 1.24 1.78 1.78 2.49 4.45 2.31 6.93-.18 3.2-2.48 6.57-5.68 6.4-1.78-.18-3.2-1.25-4.27-2.67-.88-1.42-1.42-3.2-1.95-4.8"/><path id="at" d="M1224.17 450.6l-6.03-7.1-9.42 17.58 3.38 11.01 12.6-14.21z"/><path id="au" d="M1231.1 451.48l56.49 62.89-34.64 30.37-42.28-65.01c-4.26-6.22 2.31-20.07 6.58-26.3a9.47 9.47 0 0 1 13.85-1.95z"/><path id="av" d="M1285.64 707.45l-15.1-85.8-17.59-76.9 34.64-30.38-1.95 106.4 8.52 82.42z"/><path id="aw" d="M1287.59 514.37l-28.42 195.75-8.7-1.42 2.48-163.96z"/><path id="ax" d="M1234.66 716.34l22.73-.9 1.42-7.1-6.57-.89-22.03 6.22.54 3.02z"/><path id="ay" d="M1294.16 703.2l.53 6.56-26.28 1.6-.36-2.13 23.45-7.46z"/><path id="az" d="M1176.4 553.1h-30.38s-.9-2.14 3.9-3.03c4.8-.89 19.54-1.24 19.54-1.24l2.5-4.09 6.56 2.49z"/><path id="aA" d="M1219.56 457.17l-23.1 43.34-27.53 48.14 8.88.36 24.52-33.93 32.5-41.57a11.25 11.25 0 0 0 3.02-14.03c-3.37-7.1-12.96-8.35-18.3-2.31z"/><path id="aC" d="M1232.7 513.48c-.7-8.88-3.73-36.24-3.73-36.24l-9.41 15.99z"/><path id="aD" d="M982.06 585.6c-1.6 0-13.85 5.15-13.85 5.15l9.59 79.4c-2.13 1.07-5.15 1.6-7.29 2.31-4.8 1.42-9.05 1.78-13.14 4.62-.36.18-.36 1.42-.53 1.78-.18.88 1.06 1.24 1.95 1.42 5.69.17 11.55.35 17.23 0 3.73-.18 6.57-1.96 9.95-3.73 1.95-.9 2.66-3.91 2.49-5.16 0-.35-4.98-85.8-6.4-85.8z"/><path id="aE" d="M971.4 677.43c5.51-.53 12.97-3.02 17.23-6.4.36 3.74-.7 7.11-7.63 8.9-8 2.12-16.7 4.25-24.7 1.95-.88-.18-1.77-.72-1.77-1.6 0-.36.18-.71.53-1.07 1.42-1.95 5.68-5.33 8.17-4.44 1.25.35 2.31 1.95 3.73 2.3 1.25.36 3.02.54 4.44.36z"/><path id="aF" d="M1011.55 671.57c0-.35-4.98-85.8-6.4-85.8-1.6 0-13.85 5.16-13.85 5.16l9.59 79.4c1.6 4.26 3.02 8.35 5.33 12.26 2.3 3.9 5.5 7.46 9.6 9.59.35.18 1.06.35 1.41.18.18-.18.36-.54.36-.72.7-2.3-.36-4.8-1.25-7.1-1.6-4.26-4.44-8.53-4.8-12.97z"/><path id="aG" d="M1003.55 682.05c2.5 4.62 5.51 9.24 10.3 11.37.9.36 1.78.71 2.5.53 1.24-.17 1.95-1.24 2.3-2.48.36-1.25.18-2.31-.17-3.56a24.69 24.69 0 0 0-2.14-4.97 2.14 2.14 0 0 0-.88-.89c-.54 0-1.07.36-1.43.71-1.24.9-3.01.71-4.26 0a10.97 10.97 0 0 1-3.2-3.2c-1.77-2.48-3.37-6.92-5.86-8.34-.89 3.73 1.07 7.64 2.84 10.83z"/><path id="aH" d="M861.98 694.84a5.86 5.86 0 1 1 11.72 0 5.86 5.86 0 0 1-11.72 0z"/><path id="aI" d="M933.03 694.84a5.86 5.86 0 1 1 11.73 0 5.86 5.86 0 0 1-11.73 0z"/><path id="aJ" d="M907.81 694.84c0 3.2-2.66 5.86-5.86 5.86a5.91 5.91 0 0 1-5.86-5.86c0-3.2 2.66-5.86 5.86-5.86s5.86 2.66 5.86 5.86z"/><path id="aK" d="M867.84 694.84v-3.02c0-6.75 5.5-12.43 12.44-12.43h23.09v-60.22"/><path id="aL" d="M938.19 694.84v-3.02c0-6.75-5.51-12.43-12.44-12.43h-23.27v-60.22"/><path id="aM" d="M901.95 694.84V679.4"/><path id="aN" d="M895.55 678.86V649h13.15v29.85z"/><path id="aO" d="M897.69 653.63V619.7h8.34v33.93z"/><path id="aP" d="M1088.64 694.84a5.86 5.86 0 1 1 11.72 0 5.86 5.86 0 0 1-11.72 0z"/><path id="aQ" d="M1159.7 694.84a5.86 5.86 0 1 1 11.72 0 5.86 5.86 0 0 1-11.73 0z"/><path id="aR" d="M1122.57 694.84a5.86 5.86 0 1 1 11.72 0 5.86 5.86 0 0 1-11.72 0z"/><path id="aS" d="M1094.5 694.84v-3.02c0-6.75 5.5-12.43 12.44-12.43h23.27v-60.22"/><path id="aT" d="M1164.85 694.84v-3.02c0-6.75-5.51-12.43-12.44-12.43h-23.27v-60.22"/><path id="aU" d="M1128.43 694.84V679.4"/><path id="aV" d="M1122.21 678.86V649h13.15v29.85z"/><path id="aW" d="M1124.34 653.63V619.7h8.35v33.93z"/><path id="aX" d="M772.8 623.79v-64.3h405.55v64.3z"/><path id="aY" d="M773.34 723.8V560.02h6.75V723.8z"/><path id="aZ" d="M1176.04 723.8V560.02h6.75V723.8z"/><path id="ba" d="M1182.96 597.5l-410.68-37.48h410.68z"/><path id="bb" d="M757 564.1v-10.83h441.06v10.83z"/><linearGradient id="g" x1="843.42" x2="867.77" y1="518.72" y2="518.72" gradientUnits="userSpaceOnUse"><stop offset="0" stop-color="#ead18c" stop-opacity="0"/><stop offset="1" stop-color="#524f63" stop-opacity=".7"/></linearGradient><linearGradient id="l" x1="778.04" x2="834.33" y1="522.99" y2="522.99" gradientUnits="userSpaceOnUse"><stop offset="0" stop-color="#484ec2" stop-opacity="0"/><stop offset="1" stop-color="#444bcc" stop-opacity=".5"/></linearGradient><linearGradient id="s" x1="856.44" x2="976.45" y1="549.78" y2="502.32" gradientUnits="userSpaceOnUse"><stop offset="0" stop-color="#ead18c" stop-opacity="0"/><stop offset="1" stop-color="#524f63" stop-opacity=".7"/></linearGradient><linearGradient id="G" x1="975.43" x2="997.91" y1="473.8" y2="414.33" gradientUnits="userSpaceOnUse"><stop offset="0" stop-color="#484ec2" stop-opacity="0"/><stop offset="1" stop-color="#444bcc" stop-opacity=".5"/></linearGradient><linearGradient id="W" x1="1099.37" x2="1152.71" y1="521.65" y2="521.65" gradientUnits="userSpaceOnUse"><stop offset="0" stop-color="#b6567a" stop-opacity="0"/><stop offset="1" stop-color="#f3a530"/></linearGradient><linearGradient id="aB" x1="1223.52" x2="1231.07" y1="518.69" y2="472.21" gradientUnits="userSpaceOnUse"><stop offset="0" stop-color="#484ec2" stop-opacity="0"/><stop offset="1" stop-color="#444bcc" stop-opacity=".5"/></linearGradient></defs><use fill="#5bb59b" xlink:href="#a" transform="translate(-757 -389)"/><use fill="#fff" xlink:href="#b" transform="translate(-757 -389)"/><use fill="#524f63" xlink:href="#c" transform="translate(-757 -389)"/><use fill="#63a590" xlink:href="#d" transform="translate(-757 -389)"/><use fill="#5bb59b" xlink:href="#e" transform="translate(-757 -389)"/><use fill="#ead18c" xlink:href="#f" transform="translate(-757 -389)"/><use fill="url(#g)" xlink:href="#h" opacity=".5" transform="translate(-757 -389)"/><use fill="#91616a" xlink:href="#i" transform="translate(-757 -389)"/><use fill="#5b61d3" xlink:href="#j" transform="translate(-757 -389)"/><use fill="#8385e6" xlink:href="#k" transform="translate(-757 -389)"/><use fill="url(#l)" xlink:href="#m" transform="translate(-757 -389)"/><use fill="#fff" xlink:href="#n" transform="translate(-757 -389)"/><use fill="#91616a" xlink:href="#o" transform="translate(-757 -389)"/><use fill="#91616a" xlink:href="#p" transform="translate(-757 -389)"/><use fill="#fff" xlink:href="#q" transform="translate(-757 -389)"/><use fill="#8385e6" xlink:href="#r" transform="translate(-757 -389)"/><use fill="url(#s)" xlink:href="#t" transform="translate(-757 -389)"/><use fill="#ead18c" xlink:href="#u" transform="translate(-757 -389)"/><use fill="#fff" xlink:href="#v" transform="translate(-757 -389)"/><use fill="#524f63" xlink:href="#w" transform="translate(-757 -389)"/><use fill="#524f63" xlink:href="#x" transform="translate(-757 -389)"/><use fill="#524f63" xlink:href="#y" transform="translate(-757 -389)"/><use fill="#4a4549" xlink:href="#z" transform="translate(-757 -389)"/><use fill="#4a4549" xlink:href="#A" transform="translate(-757 -389)"/><use fill="#eff2f7" xlink:href="#B" transform="translate(-757 -389)"/><use fill="#eff2f7" xlink:href="#C" transform="translate(-757 -389)"/><g><use fill="#524f63" xlink:href="#D" transform="translate(-757 -389)"/><use fill="#eebcc5" xlink:href="#E" transform="translate(-757 -389)"/><use fill="#ec4a94" xlink:href="#F" transform="translate(-757 -389)"/><use fill="url(#G)" xlink:href="#H" transform="translate(-757 -389)"/><use fill="#eebcc5" xlink:href="#I" transform="translate(-757 -389)"/><use fill="#eebcc5" xlink:href="#J" transform="translate(-757 -389)"/><use fill="#eebcc5" xlink:href="#K" transform="translate(-757 -389)"/><use fill="#eebcc5" xlink:href="#L" transform="translate(-757 -389)"/><use fill="#524f63" xlink:href="#M" transform="translate(-757 -389)"/><use fill="#524f63" xlink:href="#N" transform="translate(-757 -389)"/><use fill="#524f63" xlink:href="#O" transform="translate(-757 -389)"/><use fill="#524f63" xlink:href="#P" transform="translate(-757 -389)"/></g><g><use fill="#524f63" xlink:href="#Q" transform="translate(-757 -389)"/><use fill="#f3a530" xlink:href="#R" transform="translate(-757 -389)"/><use fill="#eebcc5" xlink:href="#S" transform="translate(-757 -389)"/><use fill="#524f63" xlink:href="#T" transform="translate(-757 -389)"/><use fill="#fff" xlink:href="#U" transform="translate(-757 -389)"/><use fill="#524f63" xlink:href="#V" transform="translate(-757 -389)"/><use fill="url(#W)" xlink:href="#X" transform="translate(-757 -389)"/><use fill="#8385e6" xlink:href="#Y" transform="translate(-757 -389)"/><use fill="#9092ec" xlink:href="#Z" transform="translate(-757 -389)"/><use fill="#524f63" xlink:href="#aa" transform="translate(-757 -389)"/><use fill="#eff2f7" xlink:href="#ab" transform="translate(-757 -389)"/><use fill="#524f63" xlink:href="#ac" transform="translate(-757 -389)"/><use fill="#eebcc5" xlink:href="#ad" transform="translate(-757 -389)"/><use fill="#4a4549" xlink:href="#ae" transform="translate(-757 -389)"/><use fill="#4a4549" xlink:href="#af" opacity=".7" transform="translate(-757 -389)"/><use fill="#eebcc5" xlink:href="#ag" transform="translate(-757 -389)"/><use fill="#4a4549" xlink:href="#ah" transform="translate(-757 -389)"/><use fill="#524f63" xlink:href="#ai" transform="translate(-757 -389)"/><use fill="#fff" xlink:href="#aj" transform="translate(-757 -389)"/><use fill="#5b61d3" xlink:href="#ak" transform="translate(-757 -389)"/><use fill="#f3a530" xlink:href="#al" transform="translate(-757 -389)"/><use fill="#eebcc5" xlink:href="#am" transform="translate(-757 -389)"/></g><g><use fill="#75454f" xlink:href="#an" transform="translate(-757 -389)"/><use fill="#56b949" xlink:href="#ao" transform="translate(-757 -389)"/><use fill="#91616a" xlink:href="#ap" transform="translate(-757 -389)"/><use fill="#91616a" xlink:href="#aq" transform="translate(-757 -389)"/><use fill="#4a4549" xlink:href="#ar" transform="translate(-757 -389)"/><use fill="#91616a" xlink:href="#as" transform="translate(-757 -389)"/><use fill="#fff" xlink:href="#at" transform="translate(-757 -389)"/><use fill="#56b949" xlink:href="#au" transform="translate(-757 -389)"/><use fill="#37354c" xlink:href="#av" transform="translate(-757 -389)"/><use fill="#524f63" xlink:href="#aw" transform="translate(-757 -389)"/><use fill="#524f63" xlink:href="#ax" transform="translate(-757 -389)"/><use fill="#37354c" xlink:href="#ay" transform="translate(-757 -389)"/><use fill="#91616a" xlink:href="#az" transform="translate(-757 -389)"/><use fill="#56b949" xlink:href="#aA" transform="translate(-757 -389)"/><use fill="url(#aB)" xlink:href="#aC" transform="translate(-757 -389)"/></g><g><use fill="#eebcc5" xlink:href="#aD" transform="translate(-757 -389)"/><use fill="#524f63" xlink:href="#aE" transform="translate(-757 -389)"/></g><g><use fill="#eebcc5" xlink:href="#aF" transform="translate(-757 -389)"/><use fill="#524f63" xlink:href="#aG" transform="translate(-757 -389)"/></g><g><use fill="#fff" xlink:href="#aH" transform="translate(-757 -389)"/><use fill="#fff" xlink:href="#aI" transform="translate(-757 -389)"/><use fill="#fff" xlink:href="#aJ" transform="translate(-757 -389)"/><use fill="#fff" fill-opacity="0" stroke="#fff" stroke-miterlimit="50" xlink:href="#aK" transform="translate(-757 -389)"/><use fill="#fff" fill-opacity="0" stroke="#fff" stroke-miterlimit="50" xlink:href="#aL" transform="translate(-757 -389)"/><use fill="#fff" fill-opacity="0" stroke="#fff" stroke-miterlimit="50" xlink:href="#aM" transform="translate(-757 -389)"/><use fill="#fff" xlink:href="#aN" transform="translate(-757 -389)"/><use fill="#fff" xlink:href="#aO" transform="translate(-757 -389)"/></g><g><use fill="#fff" xlink:href="#aP" transform="translate(-757 -389)"/><use fill="#fff" xlink:href="#aQ" transform="translate(-757 -389)"/><use fill="#fff" xlink:href="#aR" transform="translate(-757 -389)"/><use fill="#fff" fill-opacity="0" stroke="#fff" stroke-miterlimit="50" xlink:href="#aS" transform="translate(-757 -389)"/><use fill="#fff" fill-opacity="0" stroke="#fff" stroke-miterlimit="50" xlink:href="#aT" transform="translate(-757 -389)"/><use fill="#fff" fill-opacity="0" stroke="#fff" stroke-miterlimit="50" xlink:href="#aU" transform="translate(-757 -389)"/><use fill="#fff" xlink:href="#aV" transform="translate(-757 -389)"/><use fill="#fff" xlink:href="#aW" transform="translate(-757 -389)"/></g><g><use fill="#f5f5f5" xlink:href="#aX" transform="translate(-757 -389)"/><use fill="#f5f5f5" xlink:href="#aY" transform="translate(-757 -389)"/><use fill="#f5f5f5" xlink:href="#aZ" transform="translate(-757 -389)"/><use fill="#f5f5f5" xlink:href="#ba" transform="translate(-757 -389)"/><use fill="#f5f5f5" xlink:href="#bb" transform="translate(-757 -389)"/></g></svg>