<svg xmlns="http://www.w3.org/2000/svg" xmlns:xlink="http://www.w3.org/1999/xlink" width="60" height="61" viewBox="0 0 60 61"><defs><path id="a" d="M1155.62 3128.67c-.3-.6-.59-1.22-.86-1.85-2.68-6.2-4.28-13.5-4.28-19.53v-3.93h-3.53v3.93c0 4.65.83 9.82 2.35 14.83l-1.67 2.35a34.6 34.6 0 0 1-5.81-15.52v-.3h-3.53v.61c.85 7.02 3.36 13.15 7.9 19.32l1.45 1.96 3.06-4.3c.26.67.53 1.33.82 1.99v.01c1.27 2.87 2.8 5.6 4.42 7.92l3.2 4.58v-42.9h-3.52z"/><path id="b" d="M1177.17 3119.1a37.93 37.93 0 0 1-4.38 7.37 44.55 44.55 0 0 1-6.58 7v-13.9c1.85-.7 3.63-1.5 5.29-2.37 1.3-.34 2.66-.51 4.03-.51a1.77 1.77 0 0 1 1.64 2.41zm-10.96-17.05a49.45 49.45 0 0 1 8.86 6.02c.4.34.63.83.63 1.35 0 .5-.18.95-.5 1.23-.54.48-1.2.93-1.96 1.44l-.02.01a41.94 41.94 0 0 1-7.01 3.68zm11.33 11.25a5.3 5.3 0 0 0-.19-7.91c-3.52-3-7.44-5.55-11.34-7.38l-.35-.16h-2.98v42.66l2.79-1.99a47.49 47.49 0 0 0 10.14-9.93l.01-.01a41.41 41.41 0 0 0 4.79-8.07 5.3 5.3 0 0 0-3.07-7.03c.06-.07.13-.12.2-.18z"/><path id="c" d="M1183.85 3100.41v-3.53l-7.06-1.4v-3.53l-15.88-3.16-1.18 1.8 1.18 1.8 12.35 2.45v3.53l7.06 1.41v3.53l7.04 1.4c-.24 9.9-3.02 17.94-8.9 25.92-4.87 6.45-11.23 11.71-17.55 14.54l-1.18 1.93 1.18 1.92.68-.3c7.1-2.98 14.28-8.8 19.68-15.97l.02-.02c6.65-9.01 9.62-18.1 9.62-29.46v-1.45z"/><path id="d" d="M1143.37 3130.63c-5.9-7.98-8.67-16.03-8.91-25.92l7.04-1.4v-3.53l7.06-1.4v-3.54l12.35-2.46v-3.6l-15.88 3.17v3.53l-7.06 1.4v3.53l-7.06 1.41v1.45c0 11.36 2.97 20.45 9.63 29.46l.01.02c5.4 7.17 12.58 13 19.68 15.97l.68.3v-3.85c-6.32-2.83-12.67-8.09-17.54-14.54z"/></defs><use fill="#009ad2" xlink:href="#a" transform="translate(-1131 -3088)"/><use fill="#007caa" xlink:href="#b" transform="translate(-1131 -3088)"/><use fill="#007caa" xlink:href="#c" transform="translate(-1131 -3088)"/><g transform="translate(-1131 -3088)"><use fill="#009ad2" xlink:href="#d"/></g></svg>