<svg xmlns="http://www.w3.org/2000/svg" xmlns:xlink="http://www.w3.org/1999/xlink" width="114" height="60" viewBox="0 0 114 60"><defs><path id="a" d="M338.36 3087h-56.68l-13.29 30 13.29 30h56.68z"/><path id="b" d="M225 3147v-60h56.68v60z"/><path id="c" d="M248.48 3118.77h8.21a8.43 8.43 0 0 1-8.22 6.64 3.32 3.32 0 1 1 0-6.64zm-.01 13.29c3.11 0 6-.95 8.41-2.58v2.3h6.64v-19.87c0-5.5-4.47-9.97-9.96-9.97h-11.73v6.65h11.73a3.32 3.32 0 0 1 3.32 3.32v.22h-8.4a9.97 9.97 0 0 0 0 19.93z"/><path id="d" d="M312.94 3132.06c5.39 0 10.16-3.7 12.17-9.42l-6.27-2.2c-1.06 3.02-3.37 4.97-5.9 4.97-3.56 0-6.46-3.77-6.46-8.41 0-4.64 2.9-8.41 6.46-8.41 2.53 0 4.84 1.95 5.9 4.97l6.27-2.2c-2-5.72-6.78-9.42-12.17-9.42-7.22 0-13.1 6.76-13.1 15.06s5.88 15.06 13.1 15.06z"/><path id="e" d="M289.38 3101.94l-7.7 19.66-2.22 5.23 2.22 5.23h3.04l5.15-13.16v13.16h6.64v-30.12z"/><path id="f" d="M273.98 3101.94h-7.13v30.12h6.64v-13.16l5.15 13.16h3.04v-10.46z"/></defs><use fill="#b7c3c8" xlink:href="#a" transform="translate(-225 -3087)"/><use fill="#d1dee4" xlink:href="#b" transform="translate(-225 -3087)"/><use fill="#012231" xlink:href="#c" transform="translate(-225 -3087)"/><use xlink:href="#d" transform="translate(-225 -3087)"/><use xlink:href="#e" transform="translate(-225 -3087)"/><use fill="#012231" xlink:href="#f" transform="translate(-225 -3087)"/></svg>