<svg xmlns="http://www.w3.org/2000/svg" xmlns:xlink="http://www.w3.org/1999/xlink"><defs><path id="a" d="M599.04-48s-1.15 15.07-2.4 36.81c-2.8 48.51-6.03 130.26 2.4 148.68 12.19 26.61 846.12 761.85 846.12 761.85V-1.16"/><path id="a" d="M894.85 1562.5h-1.5V1548a.5.5 0 0 0-.5-.5h-26a.5.5 0 0 0-.5.5v14.5h-1.5v-16c0-.28.23-.5.5-.5h29c.28 0 .5.22.5.5zm-22-9v9h-.5v-9zm-.24-1l.74-1.73.74 1.73zm5.7 7c-.23-1.59-1.6-2.45-2.68-2.82l3.22-5.37v4.19h1v-4.2l3.23 5.38c-1.1.37-2.45 1.23-2.7 2.82zm2.04 2.5v.5h-2v-.5zm-2-1v-.5h2v.5zm9.5-11.5h-4a.5.5 0 0 0-.5.5v4.5h1v-4h3v2h-2v1h2v2.5h-2v1h2v2.5h-2v1h2v2h-3v-4h-1v4h-2v-2.5c0-2.04 2.48-2.49 2.58-2.5a.5.5 0 0 0 .35-.76l-4.5-7.5a.52.52 0 0 0-.86 0l-4.5 7.5a.5.5 0 0 0 .35.75c.1.02 2.58.47 2.58 2.51v2.5h-2v-4h-1v4h-.5v-9h.5v1h1v-1.5a.5.5 0 0 0-.04-.2l-1.5-3.5a.5.5 0 0 0-.92 0l-1.5 3.5a.5.5 0 0 0-.04.2v9.5h-4v-14h25v14h-4V1550a.5.5 0 0 0-.5-.5zm7 18.5h-30v-4.5h30zm-18.89 5l.8-4h6.18l.8 4zm9.4 1v1h-11v-1zm9-29h-29c-.84 0-1.5.67-1.5 1.5v22c0 .28.22.5.5.5h11.38l-.8 4h-1.09a.5.5 0 0 0-.5.5v1.5h-1v1h15v-1h-1v-1.5a.5.5 0 0 0-.5-.5h-1.09l-.8-4h11.4a.5.5 0 0 0 .5-.5v-22c0-.83-.68-1.5-1.5-1.5z"/><path id="b" d="M879.85 1566a.5.5 0 1 1 0-1 .5.5 0 0 1 0 1zm0-2a1.5 1.5 0 1 0 0 3 1.5 1.5 0 0 0 0-3z"/><path id="a" d="M558.47 1571.73v-1.06h1.06v1.06z"/><path id="b" d="M573.93 1573.87c0 .59-.47 1.06-1.06 1.06h-27.74c-.59 0-1.06-.47-1.06-1.06v-1.07h9.9l.92.91c.1.1.24.16.38.16h7.46c.14 0 .28-.06.38-.16l.91-.91h9.91zm-28.8-21.34c0-.59.48-1.06 1.07-1.06h3.2v1.06h-2.67c-.3 0-.53.24-.53.54v16c0 .3.24.53.53.53h24.54c.3 0 .53-.24.53-.53v-16c0-.3-.24-.54-.53-.54h-2.67v-1.06h3.2c.59 0 1.07.47 1.07 1.06v19.2h-9.07a.53.53 0 0 0-.38.16l-.9.91h-7.03l-.91-.91a.53.53 0 0 0-.38-.16h-9.07zm21.34 14.4c1.17 0 2.13-.95 2.13-2.13v-11.2h2.13v14.93h-23.46v-14.93h2.13v11.2c0 1.18.96 2.13 2.13 2.13zm-16-17.6h17.06v15.47c0 .59-.47 1.07-1.06 1.07h-14.94c-.59 0-1.06-.48-1.06-1.07zm0-3.2c0-.59.47-1.06 1.06-1.06h14.94c.59 0 1.06.47 1.06 1.06v2.14h-17.06zm23.46 25.6v-19.2c0-1.17-.95-2.13-2.13-2.13h-3.2v-4.27c0-1.17-.96-2.13-2.13-2.13h-14.94c-1.17 0-2.13.96-2.13 2.13v4.27h-3.2c-1.18 0-2.13.96-2.13 2.13v19.2h-.54c-.3 0-.53.24-.53.54v1.6c0 1.17.96 2.13 2.13 2.13h27.74c1.17 0 2.13-.96 2.13-2.13v-1.6c0-.3-.24-.54-.53-.54z"/><path id="c" d="M552.07 1562.13v-1.06h13.86v1.06z"/><path id="d" d="M552.07 1564.27v-1.07h12.8v1.07z"/><path id="e" d="M555.27 1560v-1.07h10.66v1.07z"/><path id="f" d="M551.53 1547.2v-1.07h1.07v1.07z"/><path id="g" d="M553.67 1547.2v-1.07h1.06v1.07z"/><path id="h" d="M555.8 1547.2v-1.07h1.07v1.07z"/><path id="i" d="M553.13 1560v-1.07h1.07v1.07z"/><path id="j" d="M557.19 1552.96l-.64-.85-2.14 1.6a.53.53 0 0 0 0 .85l2.14 1.6.64-.85-1.57-1.18z"/><path id="k" d="M563.7 1553.81a.53.53 0 0 0-.11-.1l-2.14-1.6-.64.85 1.57 1.17-1.57 1.18.64.85 2.14-1.6a.53.53 0 0 0 .1-.75z"/><path id="l" d="M558.43 1557l-1-.4 2.14-5.33 1 .4z"/><path id="a" d="M1193.98 1546.32a.79.79 0 0 0-1.03.01l-2.15 1.92v-.25a.53.53 0 1 0-1.06 0v1.2l-.9.8a.53.53 0 0 0 .72.8l3.9-3.5 3.92 3.5a.53.53 0 1 0 .71-.8z"/><path id="b" d="M1196.67 1551.47c-.3 0-.54.23-.54.53v3.73h-5.33V1552a.53.53 0 1 0-1.06 0v4.07c0 .4.34.73.74.73h5.97c.41 0 .75-.32.75-.73V1552c0-.3-.24-.53-.53-.53z"/><path id="c" d="M1195.69 1563.06l-1.69-1.68v-2.4a2.66 2.66 0 0 1 1.69 4.08zm-4.18.33l1.88-1.12 1.55 1.55a2.64 2.64 0 0 1-3.43-.43zm-.7-1.8c0-1.26.88-2.35 2.13-2.6v2.3l-1.98 1.19c-.1-.29-.16-.58-.16-.88zm2.66-3.73a3.73 3.73 0 1 0 0 7.47 3.73 3.73 0 0 0 0-7.47z"/><path id="d" d="M1212.66 1553.6v-1.6h1.07v1.6zm-3.2 0h-1.06v-3.2h1.07zm-4.26 0h-1.07v-5.87h1.07zm9.6-1.83a.84.84 0 0 0-.84-.84h-1.52a.84.84 0 0 0-.84.84v1.83h-1.07v-3.35c0-.5-.41-.92-.92-.92h-1.36c-.5 0-.92.42-.92.92v3.35h-1.06v-5.87c0-.59-.48-1.06-1.07-1.06h-1.07c-.59 0-1.06.47-1.06 1.06v5.87h-.54a.53.53 0 0 1-.53-.54v-6.4a.53.53 0 0 0-1.07 0v6.4c0 .89.72 1.6 1.6 1.6h12.27a.53.53 0 1 0 0-1.06z"/><path id="e" d="M1214.8 1564.26h-12.27a.53.53 0 0 1-.53-.53v-.85l1.76-1.75c.2-.2.54-.2.75 0l.62.62a1.6 1.6 0 0 0 2.27 0l2.22-2.22c.21-.2.54-.2.76 0l.62.62a1.6 1.6 0 0 0 2.26 0l1.91-1.9a.53.53 0 0 0-.75-.76l-1.91 1.9a.52.52 0 0 1-.76 0l-.62-.62c-.63-.6-1.63-.6-2.26 0l-2.23 2.23c-.2.2-.54.2-.75 0l-.63-.63c-.63-.6-1.62-.6-2.26 0l-1 1v-4.04a.53.53 0 0 0-1.07 0v6.4c0 .88.72 1.6 1.6 1.6h12.27a.53.53 0 1 0 0-1.07z"/><path id="f" d="M1216.93 1546.96v19.44h-29.86v-19.44c-.07-.96.64-1.8 1.6-1.9h26.66c.96.1 1.67.94 1.6 1.9zm-1.6 23.7h-26.66a1.77 1.77 0 0 1-1.6-1.89v-1.3h29.86v1.3c.07.96-.64 1.8-1.6 1.9zm-17.06 2.13v-1.06h7.46v1.06zm10.66 1.07c.6 0 1.07.48 1.07 1.07h-16c0-.6.48-1.07 1.07-1.07zm9.07-5.09v-21.81a2.83 2.83 0 0 0-2.67-2.96h-26.66a2.83 2.83 0 0 0-2.67 2.96v21.81a2.83 2.83 0 0 0 2.67 2.96h8.53v1.06h-2.13c-1.18 0-2.13.96-2.13 2.14v.53c0 .3.23.53.53.53h17.06c.3 0 .53-.24.53-.53v-.53c0-1.18-.95-2.14-2.13-2.14h-2.13v-1.06h8.53a2.83 2.83 0 0 0 2.67-2.96z"/><path id="a" d="M249.73 1562.67v1.06a.53.53 0 0 0 1.07 0v-.53c0-.3.24-.53.53-.53h.54c.3 0 .53.24.53.53v5.87c0 1.17-.96 2.13-2.13 2.13h-5.34a2.13 2.13 0 0 1-2.13-2.13v-12c0-.06 0-.11.02-.16a.8.8 0 0 1 1.58.16v6.66a.53.53 0 0 0 1.07 0v-1.6c0-.3.24-.53.53-.53h.53c.3 0 .54.24.54.53v1.6a.53.53 0 0 0 1.06 0v-1.06c0-.3.24-.54.54-.54h.53c.3 0 .53.24.53.54zm1.6 12.26h-7.46v-2.85c.34.12.7.19 1.06.19h5.34c.36 0 .72-.07 1.06-.19zm-23.46-1.7v-2.56h14.3c.17.29.38.55.63.78v3.48h-13.24a1.7 1.7 0 0 1-1.7-1.7zm1.7-28.16h16.87c.93 0 1.7.76 1.7 1.7v1.5h-20.27v-1.5c0-.94.76-1.7 1.7-1.7zm12.35 11.2h-8.78a1.04 1.04 0 0 1-1-1.07c0-.28.1-.56.3-.76.18-.2.43-.3.7-.3h10.26c.57.01 1.02.49 1 1.06l-.01.16a1.71 1.71 0 0 0-.6-.15.74.74 0 0 0-.35 0c-.65.06-1.23.46-1.52 1.06zm5.96 5.01a1.6 1.6 0 0 0-1.35-.75H246c-.18 0-.36.04-.53.1v-3.56c0-.32-.08-.63-.24-.9.16-.3.23-.63.24-.97a2.1 2.1 0 0 0-2.07-2.13h-10.26c-.56 0-1.09.23-1.47.63-.39.4-.6.94-.6 1.5a2.1 2.1 0 0 0 2.07 2.13h8.6v11.74c0 .18.01.35.04.53h-13.91v-20.27h20.26v11.83c-.08.04-.17.07-.25.12zm1.32-14.52a2.77 2.77 0 0 0-2.76-2.76h-16.88a2.77 2.77 0 0 0-2.76 2.76v26.48a2.77 2.77 0 0 0 2.76 2.76h22.3c.3 0 .54-.24.54-.53v-4.02a3.19 3.19 0 0 0 1.07-2.38v-5.87c0-.88-.72-1.6-1.6-1.6h-.54c-.27 0-.54.08-.78.21a1.6 1.6 0 0 0-1.35-.74z"/><path id="b" d="M237.47 1573.33v-1.06h1.06v1.06zm1.06-2.13h-1.06c-.6 0-1.07.48-1.07 1.07v1.06c0 .6.48 1.07 1.07 1.07h1.06c.6 0 1.07-.48 1.07-1.07v-1.06c0-.6-.48-1.07-1.07-1.07z"/><path id="c" d="M230.53 1559.47c0 .3.24.53.54.53h1.6a.53.53 0 0 0 0-1.07h-1.6c-.3 0-.54.24-.54.54z"/><path id="d" d="M234.8 1560h5.33a.53.53 0 1 0 0-1.07h-5.33a.53.53 0 1 0 0 1.07z"/><path id="e" d="M232.67 1561.07h-1.6a.53.53 0 0 0 0 1.06h1.6a.53.53 0 0 0 0-1.06z"/><path id="f" d="M234.8 1562.13h5.33a.53.53 0 1 0 0-1.06h-5.33a.53.53 0 1 0 0 1.06z"/><path id="g" d="M232.67 1563.2h-1.6a.53.53 0 0 0 0 1.07h1.6a.53.53 0 0 0 0-1.07z"/><path id="h" d="M234.8 1564.27h5.33a.53.53 0 1 0 0-1.07h-5.33a.53.53 0 1 0 0 1.07z"/><path id="i" d="M232.67 1565.33h-1.6a.53.53 0 0 0 0 1.07h1.6a.53.53 0 0 0 0-1.07z"/><path id="j" d="M234.8 1566.4h5.33a.53.53 0 1 0 0-1.07h-5.33a.53.53 0 1 0 0 1.07z"/><path id="k" d="M224.13 1546.67c.3 0 .54-.24.54-.54v-.53a.53.53 0 1 0-1.07 0v.53c0 .3.24.54.53.54z"/><path id="l" d="M223.6 1548.8a.53.53 0 0 0 1.07 0v-.53a.53.53 0 0 0-1.07 0z"/><path id="m" d="M222.53 1547.73h.54a.53.53 0 1 0 0-1.06h-.54a.53.53 0 1 0 0 1.06z"/><path id="n" d="M225.73 1546.67h-.53a.53.53 0 0 0 0 1.06h.53a.53.53 0 0 0 0-1.06z"/><path id="o" d="M251.87 1551.47c.3 0 .53-.24.53-.54v-.53a.53.53 0 0 0-1.07 0v.53c0 .3.24.54.54.54z"/><path id="p" d="M251.33 1553.6a.53.53 0 0 0 1.07 0v-.53a.53.53 0 0 0-1.07 0z"/><path id="q" d="M250.8 1551.47h-.53a.53.53 0 0 0 0 1.06h.53a.53.53 0 0 0 0-1.06z"/><path id="r" d="M253.47 1551.47h-.54a.53.53 0 0 0 0 1.06h.54a.53.53 0 0 0 0-1.06z"/><path id="s" d="M224.67 1567.47a.53.53 0 0 0-1.07 0v.53a.53.53 0 0 0 1.07 0z"/><path id="t" d="M224.13 1569.6c-.3 0-.53.24-.53.53v.54a.53.53 0 0 0 1.07 0v-.54c0-.3-.24-.53-.54-.53z"/><path id="u" d="M222.53 1569.6h.54a.53.53 0 1 0 0-1.07h-.54a.53.53 0 1 0 0 1.07z"/><path id="v" d="M225.2 1569.6h.53a.53.53 0 0 0 0-1.07h-.53a.53.53 0 0 0 0 1.07z"/><path id="w" d="M229.47 1550.4c-.3 0-.54.24-.54.53v.54a.53.53 0 1 0 1.07 0v-.54c0-.3-.24-.53-.53-.53z"/><path id="x" d="M229.47 1552.53c-.3 0-.54.24-.54.54v4.26a.53.53 0 1 0 1.07 0v-4.26c0-.3-.24-.54-.53-.54z"/><path id="a" d="M0 708c79.92 1.03 130.3 30.3 257.15 66.76 126.85 36.46 411.47 25.42 411.47 25.42S285.86 923.07 0 791.54"/><path id="b" d="M88.54 825.5s234.63-54.26 393.4-65.86c158.79-11.6 381.6 10.58 381.6 10.58s-63.39 1.75-319.44 62.57C288.06 893.6 88.54 825.5 88.54 825.5z"/><path id="a" d="M1306.6 531.6s-11.55 50.8 6.75 85.44l18.3 34.46s4.61-86.33-25.05-119.9z"/><path id="b" d="M1307.3 664.29c1.07 6.22 2.5 12.61 5.7 18.12 3.19 5.5 7.98 10.3 14.2 11.72 2.84.71 5.69.71 8.53.53 3.2 0 6.4-.35 9.24-1.95 3.55-2.13 5.32-6.04 6.75-9.95a116.12 116.12 0 0 0 5.5-20.07c.71-3.9 1.25-8.17-.7-11.72-2.5-4.8-8.36-6.75-13.69-7.64-8.88-1.42-21.13-2.13-29.66 1.42-7.46 3.2-7.1 12.79-5.86 19.54z"/><path id="c" d="M1327.56 651.68c7.1.35 14.74-.71 19.18-3.02.89-.54 1.6-1.07 1.24-1.6-.53-.71-2.3-1.07-4.08-1.07-8.53-.88-17.94-1.24-26.29.18-12.08 1.78 3.37 5.15 9.95 5.5z"/><path id="d" d="M1323.83 519.16s-5.69 96.81 7.64 132.34c0 0 8.7-86.33-7.64-132.34z"/><path id="e" d="M1329.87 650.79h3.2c4.61-19.19 18.29-81.36 11-110.31 0 0-23.09 81.53-17.22 99.83 1.24 4.8 2.3 8.17 3.02 10.48z"/><path id="f" d="M922.38 558.06l-4.44-85.44s-22.03-1.24-28.43-1.24c-3.55 0-9.59 1.78-14.38 3.2-4.45 1.42-8.18 1.24-10.48 5.5l-36.06 69.1 22.2 2.13 7.46-8.34-3.73-5.69 13.5-31.8-.18 53.83z"/><path id="h" d="M867.31 492.7l-23.8 43.16 7.46 8.7s3.02.54 5.86-.35l1.24-1.42-3.73-5.69 13.5-31.8z"/><path id="i" d="M886.32 540.66c-.9-.36-8.35-4.62-13.86-4.62-5.5 0-12.26 5.86-12.26 5.86s-.88 3.02 2.85 2.49l6.21-.9s-6.4 3.38-2.13 4.1c4.27.53 22.56 0 22.56 0z"/><path id="j" d="M884.9 553.27h-71.06v-5.15h71.06a2.73 2.73 0 0 1 2.66 2.66c0 1.25-1.24 2.49-2.66 2.49z"/><path id="k" d="M865.36 553.27h-68.57a6.47 6.47 0 0 1-6.4-4.98l-12.07-45.65a6.68 6.68 0 0 1 6.4-8.35h59.85a6.47 6.47 0 0 1 6.4 4.98z"/><path id="m" d="M784.71 494.3a6.52 6.52 0 0 0-6.4 8.34l12.08 45.65a6.92 6.92 0 0 0 2.31 3.56l41.75-57.56z"/><path id="n" d="M825.03 527.87c.71 3.02-1.06 5.33-4.26 5.33-3.02 0-6.22-2.5-6.93-5.33-.7-3.02 1.07-5.33 4.27-5.33 3.2 0 6.21 2.3 6.92 5.33z"/><path id="o" d="M887.2 460.72c.54 1.25 4.98 18.12 4.98 18.12s1.6 2.84 5.15 2.49c3.73-.36 5.15-5.5 5.15-5.5l-6.4-21.33z"/><path id="p" d="M909.94 450.24c0 11.73-12.43 24.51-23.98 24.51-11.72 0-18.12-12.96-18.12-24.5a21.19 21.19 0 0 1 21.14-21.15 21.04 21.04 0 0 1 20.96 21.14z"/><path id="q" d="M890.58 473.51l-2.49 6.4 1.6 6.75 4.98-7.1 4.97 7.98 5.5-9.77-3.72-6.39s-1.78 4.26-5.87 5.15c-4.08 1.07-4.97-3.02-4.97-3.02z"/><path id="r" d="M894.67 479.73l-3.73 4.62 1.77 2.84-2.66 5.86.53 38.37 3.73 7.82 5.33-8.7-1.24-36.6-2.85-7.1 2.14-3.03z"/><path id="t" d="M920.6 490.39l1.24 67.5-31.8-.36z"/><path id="u" d="M917.94 472.62l2.84 63.6-29.49 6.04 4.09 7.63 42.1 2.49-5.69-62.88a18.34 18.34 0 0 0-10.3-15.1z"/><path id="v" d="M886.32 540.66l5.86.7 5.15 8.53-9.77.71z"/><path id="w" d="M857 569.61l-52.04 13.32 26.47 104.1 9.06-4.62-7.82-89.53 46.54-14.57-27 15.46.53 84.9h8.18s22.91-83.12 25.04-83.12c2.31 0 40.68-25.58 40.68-25.58z"/><path id="x" d="M803.36 695.02l36.24-2.49 1.06-11.37-38.72 8.7z"/><path id="y" d="M832.85 701.41l7.28.9 20.43-7.65.53-15.98h-8.17l-3.73 9.95-11.01 6.75z"/><path id="z" d="M867.13 442.78c-.89 1.6-1.6 3.38-1.06 4.97.7 1.96 3.2 2.67 5.33 2.85 3.55.35 7.28.53 10.83.53 2.49 0 4.8-.18 7.28-.71 3.91-.89 7.29-2.84 10.84-4.8 2.49-1.42 5.15-3.2 5.68-5.86.36-2.84-1.6-5.33-3.37-7.28a30.28 30.28 0 0 0-3.38-3.38c-3.2-2.3-7.28-2.84-11.19-2.3-9.77 1.42-16.52 7.81-20.96 15.98z"/><path id="A" d="M901.6 449.53c.35-1.06 1.77-1.78 2.84-1.24 1.06.35 1.77 1.42 1.95 2.66a5.83 5.83 0 0 1-.71 3.38c-.18.53-.53 1.06-.71 1.6-.18.53-.18.88-.18 1.42 0 2.13 0 4.08.18 6.21 1.77-.7 2.66-2.3 3.55-3.9 1.95-3.56 3.9-7.29 3.55-11.37-.17-3.38-1.77-6.4-3.55-9.24-.35-.53-.71-1.24-1.24-1.6a4 4 0 0 0-2.84-.35c-.9.35-1.78.88-2.67 1.42-.89.53-1.6 1.06-2.49 1.6-.7.53-1.6 1.06-2.13 1.95-.7 1.6.36 2.31 1.25 3.2.7.35-.18 10.66 3.2 4.26z"/><path id="B" d="M866.95 457.17c-1.06 0-1.95.35-2.3 1.07a3.7 3.7 0 0 0-.18 3.37c.89 2.66 3.73 4.8 6.21 4.8 1.07 0 1.96-.36 2.31-1.07a3.7 3.7 0 0 0 .18-3.37c-.89-2.67-3.73-4.8-6.22-4.8zm3.56 10.12c-2.84 0-5.86-2.3-6.93-5.32a4.58 4.58 0 0 1 .35-4.09 3.8 3.8 0 0 1 3.02-1.42c2.85 0 5.87 2.3 6.93 5.33.54 1.6.36 3.02-.35 4.08-.54.9-1.6 1.42-3.02 1.42z"/><path id="C" d="M880.99 457.17c-1.07 0-1.96.35-2.31 1.07a3.7 3.7 0 0 0-.18 3.37c.89 2.66 3.73 4.8 6.22 4.8 1.06 0 1.95-.36 2.3-1.07a3.7 3.7 0 0 0 .18-3.37c-.88-2.67-3.73-4.8-6.21-4.8zm3.55 10.12c-2.84 0-5.86-2.3-6.93-5.32a4.58 4.58 0 0 1 .36-4.09 3.8 3.8 0 0 1 3.02-1.42c2.84 0 5.86 2.3 6.93 5.33.53 1.6.35 3.02-.36 4.08-.53.9-1.6 1.42-3.02 1.42z"/><path id="D" d="M961.81 417.2c.18 3.38 1.95 6.57 1.07 9.77-.71 2.67-3.2 4.44-3.91 7.1-.89 3.03.7 6.05 2.13 8.71 1.24 2.31 3.02 4.8 5.5 4.8 1.07 0 2.14-.54 3.2-1.07l7.46-3.73a11 11 0 0 0 3.02-1.95c1.25-1.25 1.96-3.02 2.5-4.62 1.95-5.15 3.54-10.66 3.19-16.17-.36-5.5-3.38-11.19-8.7-13.32-2.85-1.06-11.37-2.13-13.86.36-1.07 1.06-.53 2.3-.71 3.73-.18 2.3-1.07 4.26-.89 6.4z"/><path id="E" d="M967.67 433.72l-2.48.71c-10.48 6.75-16.52 16.34-17.95 28.6l-5.32 86.33 7.99-3.55z"/><path id="F" d="M1020.6 433.19l-42.62-1.78c-3.56-.18-9.95 1.07-13.5 2.13l-5.51 2.5 9.6 45.64a90.9 90.9 0 0 0-12.62 48.85l5.15 62.35h47.78l6.04-65.72a90.3 90.3 0 0 0-7.28-39.26l-2.66-6.04z"/><path id="H" d="M969.27 451.48a16.38 16.38 0 0 0 4.97 5.51c2.85 1.6 6.4 1.96 9.6 1.24a29.2 29.2 0 0 0 9.06-3.9c5.15-3.02 9.94-6.58 13.85-11.2 2.67-3.2 4.62-7.99 2.49-11.54-1.42-2.3-4.09-3.38-6.75-4.09-13.86-3.9-43.7 4.09-33.22 23.98z"/><path id="I" d="M1002.31 410.8c0 11.38-12.08 26.83-23.45 26.83s-17.58-15.45-17.58-26.82c0-11.37 9.23-20.6 20.6-20.6a20.7 20.7 0 0 1 20.43 20.6z"/><path id="J" d="M1020.6 433.19l29.67 38.55a8.78 8.78 0 0 1-2.3 12.6l-34.65 21.15-4.26-6.75 23.8-19.01a4.2 4.2 0 0 0 .9-5.69l-17.95-25.57z"/><path id="K" d="M925.57 553.27h18.66c3.01 0 5.5-2.31 5.68-5.33l.18-2.13z"/><path id="L" d="M976.2 424.66c-.36-.7 4.97 13.5 4.97 13.5s1.25 5.86 6.04 4.44c4.98-1.42 1.96-22.2 1.25-22.38-.9-.18-11.9 5.69-12.26 4.44z"/><path id="M" d="M988.28 408.14c-9.6 5.86-19.54 11.73-30.55 12.44 2.48-3.02 1.95-7.46 2.48-11.55a22.12 22.12 0 0 1 10.13-15.99 22.6 22.6 0 0 1 18.83-2.13c2.3.89 4.44 2.13 5.86 4.09 4.08 5.86-2.31 10.48-6.75 13.14z"/><path id="N" d="M987.39 431.06c.71 3.02 2.49 5.68 2.84 8.88a17.6 17.6 0 0 1-.7 6.04c-.54 2.3-1.07 4.8-1.6 7.1 3.37-.7 6.39-2.3 8.87-4.44a34.59 34.59 0 0 0 12.26-32.5c-.53-3.38-1.78-6.75-3.02-9.95-.89-2.49-1.95-4.98-3.73-7.1-1.6-2.14-4.08-3.74-6.75-3.74-3.2 0-6.04 1.96-8 4.62a10.83 10.83 0 0 0-2.12 6.04c0 2.13.88 9.6 2.84 10.48 2.48-1.6 6.4-.18 7.28 2.67 1.6 4.44-2.3 5.32-4.97 6.75-3.02 1.6-3.91 1.6-3.2 5.15z"/><path id="O" d="M1009.24 417.56c1.95 1.6 4.26 2.66 6.04 4.44 1.77 1.77 3.02 4.44 1.95 6.93-.53 1.42-1.95 2.48-3.02 3.55-1.06 1.06-2.13 2.49-1.95 4.08a6.15 6.15 0 0 0 1.42 2.85c1.6 2.3 2.84 4.97 2.3 7.63a7.92 7.92 0 0 1-3.72 5.16 10.06 10.06 0 0 1-6.4 1.06c-1.24-.18-2.48-.53-3.73-.53-3.37.18-6.04 3.2-9.41 3.55a6.12 6.12 0 0 1-5.15-1.95 6.44 6.44 0 0 1-1.6-5.33c.53-3.02 3.2-5.33 5.68-7.1 2.49-1.96 5.15-4.27 5.51-7.29.35-2.3-.89-4.62-.53-6.93.35-3.37 3.55-5.86 4.26-9.06.36-1.77-.18-6.57 2.66-6.57 2.14.18 4.09 4.26 5.69 5.5z"/><path id="P" d="M984.73 413.83c-.54 1.06-1.43 2.13-2.14 3.2l-3.2 4.26c.72-2.84 1.07-5.69.72-8.53 0-.35-.18-.89 0-1.24.17-.9.89-1.42 1.6-1.78 1.06-.7 3.55-2.84 4.61-1.42.71 1.07-1.06 4.62-1.6 5.5z"/><path id="Q" d="M1009.77 492.52l-1.95 1.77 6.75 7.82z"/><path id="R" d="M1154.19 558.06l-4.44-85.44s-22.03-4.62-28.42-4.62c-3.56 0-9.6 1.78-14.4 3.2a18.4 18.4 0 0 0-10.47 8.88l-36.06 69.1 22.2 2.13 7.46-8.34-3.73-5.69 13.5-31.8-.18 53.83z"/><path id="S" d="M1151.17 447.93a21.08 21.08 0 0 1-21.14 21.14c-6.4 0-11.01-6.75-14.74-11.19-3.2-3.73-5.51-4.8-5.51-9.95 0-11.72 8.7-20.96 20.43-20.96a20.77 20.77 0 0 1 20.96 20.96z"/><path id="T" d="M1097.34 553.27h-73.9l-15.62-58.98h73.72z"/><path id="U" d="M1097.34 553.27h-71.58l-15.99-60.75 72.3 1.77z"/><path id="V" d="M1024.16 553.27V549h50.63v4.26z"/><path id="X" d="M1124.52 543.32l28.25-13.5-2.31-45.47-4.98.35-36.59 38.37s-5.5 14.21-9.41 25.58v10.48l38.01-.71z"/><path id="Y" d="M1077.63 539.6h-39.44l-8.7-33.4 39.79.88z"/><path id="Z" d="M1088.82 569.61l-52.05 13.32 26.47 104.1 9.06-4.62-7.82-89.53 46.54-14.57-27 15.46.54 84.9h8.17s22.91-83.12 25.04-83.12c2.31 0 40.68-25.58 40.68-25.58z"/><path id="aa" d="M1035.17 695.02l36.24-2.49 1.07-11.37-38.73 8.7z"/><path id="ab" d="M1116.88 476.89a55.84 55.84 0 0 0 2.31 12.08c.18.88.54 1.77 1.25 2.3 1.42 1.07 3.55.18 5.15-.88a27.74 27.74 0 0 0 7.1-6.58c1.25-1.6 2.5-3.37 2.85-5.5.35-1.96 0-4.44-1.6-5.69-2.49-2.13-7.64-1.95-10.66-2.13-4.44 0-6.93 1.78-6.4 6.4z"/><path id="ac" d="M1064.66 701.41l7.28.9 20.6-7.65.36-15.98h-8.17l-3.73 9.95-11.01 6.75z"/><path id="ad" d="M1122.21 458.59l-1.6 17.76s1.25 7.46 5.69 6.22c4.44-1.24 4.97-4.62 4.97-4.62l1.96-21.31z"/><path id="ae" d="M1138.02 441c3.38-.17 6.75-.35 9.77-1.77 3.02-1.42 5.5-4.44 5.5-7.64 0-3.37-3.54-6.4-6.56-5.5-.71.17-1.42.7-2.13.88-1.07.36-2.31 0-3.56-.35-8.52-2.5-18.12-4.27-26.11-.18a9.24 9.24 0 0 0-3.73 3.2c-.53 1.06-.71 2.48-.89 3.73-.35 3.37-.53 6.92-.7 10.3 2.3-1.24 4.61-2.67 6.92-3.73 2.3-1.07 3.9 0 6.4.53 4.97.71 10.12.71 15.1.53z"/><path id="af" d="M1118.13 435.32a8.05 8.05 0 0 0-6.22 1.78 19.4 19.4 0 0 0-2.84 8.88c.18 1.06.53 2.3.35 3.37 0 .71.36 1.78.71 3.02 1.25 1.78 3.2 3.02 5.16 5.33 0 .18.17.18.17.36 2.13-3.56 5.33-11.55 6.04-12.44.9-1.24 4.09-4.97 3.56-6.57-.54-1.6-5.51-3.37-6.93-3.73z"/><path id="ag" d="M1118.13 444.02c-.18-.17-.36-.53-.54-.7-.35-.18-.7-.18-1.06-.18-1.42 0-3.02.17-3.9 1.24a6.3 6.3 0 0 0-.72 1.6 11.5 11.5 0 0 0-.18 4.26c.18 2.13 1.25 4.62 3.38 4.98 1.24.35 2.66-.18 3.55-1.07 3.38-3.02 1.6-6.93-.53-10.13z"/><path id="ah" d="M1144.77 455.04c1.07-.18 2.13-.54 3.38-.18 1.06.18 2.13 1.07 2.13 2.3 0 .54-.18 1.07-.18 1.6-.35 1.6.36 3.38.89 4.98 1.24 3.38 2.13 7.64 0 10.66-1.95 2.84-5.86 3.55-9.24 3.55-10.3-.53-19.9-7.81-23.09-17.58-1.07-3.38-1.42-7.1-.35-10.48.35-1.07 1.24-2.31 2.3-1.78a12.8 12.8 0 0 0 6.75 9.41c6.4 2.67 11.37-1.06 17.41-2.48z"/><path id="ai" d="M1009.77 492.52l15.99 60.75h71.4l-15.1-58.98-72.29-1.77zm2.31 1.77l68.57 1.6 14.2 55.42H1027l-14.92-57.02"/><path id="aj" d="M1125.59 553.27h-101.43V549h101.43c1.24 0 2.13.88 2.13 2.13a2.3 2.3 0 0 1-2.13 2.13z"/><path id="ak" d="M1074.25 553.27h-50.09V549h50.1c1.24 0 2.12.88 2.12 2.13a2.3 2.3 0 0 1-2.13 2.13z"/><path id="al" d="M1149.75 472.62l-18.48 48.85-47.07 6.22 1.78 9.41 60.21-1.95 16.35-42.8c.88-2.14.88-4.45.35-6.58a18.65 18.65 0 0 0-9.6-11.2z"/><path id="am" d="M1084.2 527.69l-25.4-13.5s-1.42 1.95.7 3.73c1.96 1.6 8.36 6.4 8.36 6.4v3.72c2.13 6.93 8.7 10.13 15.8 9.42l2.32-.18z"/><path id="an" d="M1187.58 553.1h-30.2s-.88-2.14 3.91-3.03c4.8-.89 18.48-1.24 18.48-1.24l3.55-3.91 4.8 1.24z"/><path id="ao" d="M1212.45 460.54l-32.33 87.04 8 1.96 49.55-84.91s-1.42-5.5-9.76-10.84c-8.35-5.15-15.46 6.75-15.46 6.75z"/><path id="ap" d="M1213.34 420.58a21.18 21.18 0 0 0-29.13-6.4 21.66 21.66 0 0 0-9.6 16.34c-.35 3.2-.35 4.45 1.07 7.46 1.42 3.02 4.97 7.29 2.84 13.33-.53 1.42 0 3.55 1.6 4.26s3.2-1.07 4.8-1.24c3.02-.18 9.06 4.44 11.19 6.4.89.7 1.95 1.6 3.2 1.77a4.52 4.52 0 0 0 3.02-.71c4.61-2.49 7.46-7.29 9.77-11.9 2.13-4.44 4.08-9.06 4.44-13.86.88-5.15 0-10.66-3.2-15.45z"/><path id="aq" d="M1212.63 461.43c.89.9 1.95 1.96 3.2 1.78.53 0 1.06-.36 1.6-.71a28.99 28.99 0 0 0 3.55-3.02 4.4 4.4 0 0 0 1.42-2.49c0-.53-.18-1.06-.36-1.6-2.13-4.8-6.57-8.52-7.99-13.5-.71-2.3-.71-4.8-1.6-6.92-.89-2.14-2.66-4.45-4.97-4.45-1.42 0-2.67.71-3.91 1.43a13.82 13.82 0 0 0-5.5 12.07c.35 4.09 2.66 8 6.21 10.3 3.2 1.96 5.5 4.27 8.35 7.11z"/><path id="ar" d="M1184.2 414.18c-3.9 2.49-6.74 6.4-8.34 10.84 4.08 1.95 14.39-2.49 17.23-4.09a19.94 19.94 0 0 0 9.6 17.77c3.72 2.13 8.16 3.2 11.71 5.32.9-2.66 1.78-5.32 1.96-7.99a20.22 20.22 0 0 0-3.02-15.45 21.18 21.18 0 0 0-29.13-6.4z"/><path id="as" d="M1195.58 435.68c-1.25-2.14 0-5.16 2.3-6.4 2.31-1.06 5.16-.35 6.93 1.24 1.78 1.78 2.49 4.45 2.31 6.93-.18 3.2-2.48 6.57-5.68 6.4-1.78-.18-3.2-1.25-4.27-2.67-.88-1.42-1.42-3.2-1.95-4.8"/><path id="at" d="M1224.17 450.6l-6.03-7.1-9.42 17.58 3.38 11.01 12.6-14.21z"/><path id="au" d="M1231.1 451.48l56.49 62.89-34.64 30.37-42.28-65.01c-4.26-6.22 2.31-20.07 6.58-26.3a9.47 9.47 0 0 1 13.85-1.95z"/><path id="av" d="M1285.64 707.45l-15.1-85.8-17.59-76.9 34.64-30.38-1.95 106.4 8.52 82.42z"/><path id="aw" d="M1287.59 514.37l-28.42 195.75-8.7-1.42 2.48-163.96z"/><path id="ax" d="M1234.66 716.34l22.73-.9 1.42-7.1-6.57-.89-22.03 6.22.54 3.02z"/><path id="ay" d="M1294.16 703.2l.53 6.56-26.28 1.6-.36-2.13 23.45-7.46z"/><path id="az" d="M1176.4 553.1h-30.38s-.9-2.14 3.9-3.03c4.8-.89 19.54-1.24 19.54-1.24l2.5-4.09 6.56 2.49z"/><path id="aA" d="M1219.56 457.17l-23.1 43.34-27.53 48.14 8.88.36 24.52-33.93 32.5-41.57a11.25 11.25 0 0 0 3.02-14.03c-3.37-7.1-12.96-8.35-18.3-2.31z"/><path id="aC" d="M1232.7 513.48c-.7-8.88-3.73-36.24-3.73-36.24l-9.41 15.99z"/><path id="aD" d="M982.06 585.6c-1.6 0-13.85 5.15-13.85 5.15l9.59 79.4c-2.13 1.07-5.15 1.6-7.29 2.31-4.8 1.42-9.05 1.78-13.14 4.62-.36.18-.36 1.42-.53 1.78-.18.88 1.06 1.24 1.95 1.42 5.69.17 11.55.35 17.23 0 3.73-.18 6.57-1.96 9.95-3.73 1.95-.9 2.66-3.91 2.49-5.16 0-.35-4.98-85.8-6.4-85.8z"/><path id="aE" d="M971.4 677.43c5.51-.53 12.97-3.02 17.23-6.4.36 3.74-.7 7.11-7.63 8.9-8 2.12-16.7 4.25-24.7 1.95-.88-.18-1.77-.72-1.77-1.6 0-.36.18-.71.53-1.07 1.42-1.95 5.68-5.33 8.17-4.44 1.25.35 2.31 1.95 3.73 2.3 1.25.36 3.02.54 4.44.36z"/><path id="aF" d="M1011.55 671.57c0-.35-4.98-85.8-6.4-85.8-1.6 0-13.85 5.16-13.85 5.16l9.59 79.4c1.6 4.26 3.02 8.35 5.33 12.26 2.3 3.9 5.5 7.46 9.6 9.59.35.18 1.06.35 1.41.18.18-.18.36-.54.36-.72.7-2.3-.36-4.8-1.25-7.1-1.6-4.26-4.44-8.53-4.8-12.97z"/><path id="aG" d="M1003.55 682.05c2.5 4.62 5.51 9.24 10.3 11.37.9.36 1.78.71 2.5.53 1.24-.17 1.95-1.24 2.3-2.48.36-1.25.18-2.31-.17-3.56a24.69 24.69 0 0 0-2.14-4.97 2.14 2.14 0 0 0-.88-.89c-.54 0-1.07.36-1.43.71-1.24.9-3.01.71-4.26 0a10.97 10.97 0 0 1-3.2-3.2c-1.77-2.48-3.37-6.92-5.86-8.34-.89 3.73 1.07 7.64 2.84 10.83z"/><path id="aH" d="M861.98 694.84a5.86 5.86 0 1 1 11.72 0 5.86 5.86 0 0 1-11.72 0z"/><path id="aI" d="M933.03 694.84a5.86 5.86 0 1 1 11.73 0 5.86 5.86 0 0 1-11.73 0z"/><path id="aJ" d="M907.81 694.84c0 3.2-2.66 5.86-5.86 5.86a5.91 5.91 0 0 1-5.86-5.86c0-3.2 2.66-5.86 5.86-5.86s5.86 2.66 5.86 5.86z"/><path id="aK" d="M867.84 694.84v-3.02c0-6.75 5.5-12.43 12.44-12.43h23.09v-60.22"/><path id="aL" d="M938.19 694.84v-3.02c0-6.75-5.51-12.43-12.44-12.43h-23.27v-60.22"/><path id="aM" d="M901.95 694.84V679.4"/><path id="aN" d="M895.55 678.86V649h13.15v29.85z"/><path id="aO" d="M897.69 653.63V619.7h8.34v33.93z"/><path id="aP" d="M1088.64 694.84a5.86 5.86 0 1 1 11.72 0 5.86 5.86 0 0 1-11.72 0z"/><path id="aQ" d="M1159.7 694.84a5.86 5.86 0 1 1 11.72 0 5.86 5.86 0 0 1-11.73 0z"/><path id="aR" d="M1122.57 694.84a5.86 5.86 0 1 1 11.72 0 5.86 5.86 0 0 1-11.72 0z"/><path id="aS" d="M1094.5 694.84v-3.02c0-6.75 5.5-12.43 12.44-12.43h23.27v-60.22"/><path id="aT" d="M1164.85 694.84v-3.02c0-6.75-5.51-12.43-12.44-12.43h-23.27v-60.22"/><path id="aU" d="M1128.43 694.84V679.4"/><path id="aV" d="M1122.21 678.86V649h13.15v29.85z"/><path id="aW" d="M1124.34 653.63V619.7h8.35v33.93z"/><path id="aX" d="M772.8 623.79v-64.3h405.55v64.3z"/><path id="aY" d="M773.34 723.8V560.02h6.75V723.8z"/><path id="aZ" d="M1176.04 723.8V560.02h6.75V723.8z"/><path id="ba" d="M1182.96 597.5l-410.68-37.48h410.68z"/><path id="bb" d="M757 564.1v-10.83h441.06v10.83z"/><linearGradient id="g" x1="843.42" x2="867.77" y1="518.72" y2="518.72" gradientUnits="userSpaceOnUse"><stop offset="0" stop-color="#ead18c" stop-opacity="0"/><stop offset="1" stop-color="#524f63" stop-opacity=".7"/></linearGradient><linearGradient id="l" x1="778.04" x2="834.33" y1="522.99" y2="522.99" gradientUnits="userSpaceOnUse"><stop offset="0" stop-color="#484ec2" stop-opacity="0"/><stop offset="1" stop-color="#444bcc" stop-opacity=".5"/></linearGradient><linearGradient id="s" x1="856.44" x2="976.45" y1="549.78" y2="502.32" gradientUnits="userSpaceOnUse"><stop offset="0" stop-color="#ead18c" stop-opacity="0"/><stop offset="1" stop-color="#524f63" stop-opacity=".7"/></linearGradient><linearGradient id="G" x1="975.43" x2="997.91" y1="473.8" y2="414.33" gradientUnits="userSpaceOnUse"><stop offset="0" stop-color="#484ec2" stop-opacity="0"/><stop offset="1" stop-color="#444bcc" stop-opacity=".5"/></linearGradient><linearGradient id="W" x1="1099.37" x2="1152.71" y1="521.65" y2="521.65" gradientUnits="userSpaceOnUse"><stop offset="0" stop-color="#b6567a" stop-opacity="0"/><stop offset="1" stop-color="#f3a530"/></linearGradient><linearGradient id="aB" x1="1223.52" x2="1231.07" y1="518.69" y2="472.21" gradientUnits="userSpaceOnUse"><stop offset="0" stop-color="#484ec2" stop-opacity="0"/><stop offset="1" stop-color="#444bcc" stop-opacity=".5"/></linearGradient><path id="a" d="M338.36 3087h-56.68l-13.29 30 13.29 30h56.68z"/><path id="b" d="M225 3147v-60h56.68v60z"/><path id="c" d="M248.48 3118.77h8.21a8.43 8.43 0 0 1-8.22 6.64 3.32 3.32 0 1 1 0-6.64zm-.01 13.29c3.11 0 6-.95 8.41-2.58v2.3h6.64v-19.87c0-5.5-4.47-9.97-9.96-9.97h-11.73v6.65h11.73a3.32 3.32 0 0 1 3.32 3.32v.22h-8.4a9.97 9.97 0 0 0 0 19.93z"/><path id="d" d="M312.94 3132.06c5.39 0 10.16-3.7 12.17-9.42l-6.27-2.2c-1.06 3.02-3.37 4.97-5.9 4.97-3.56 0-6.46-3.77-6.46-8.41 0-4.64 2.9-8.41 6.46-8.41 2.53 0 4.84 1.95 5.9 4.97l6.27-2.2c-2-5.72-6.78-9.42-12.17-9.42-7.22 0-13.1 6.76-13.1 15.06s5.88 15.06 13.1 15.06z"/><path id="e" d="M289.38 3101.94l-7.7 19.66-2.22 5.23 2.22 5.23h3.04l5.15-13.16v13.16h6.64v-30.12z"/><path id="f" d="M273.98 3101.94h-7.13v30.12h6.64v-13.16l5.15 13.16h3.04v-10.46z"/><path id="a" d="M1155.62 3128.67c-.3-.6-.59-1.22-.86-1.85-2.68-6.2-4.28-13.5-4.28-19.53v-3.93h-3.53v3.93c0 4.65.83 9.82 2.35 14.83l-1.67 2.35a34.6 34.6 0 0 1-5.81-15.52v-.3h-3.53v.61c.85 7.02 3.36 13.15 7.9 19.32l1.45 1.96 3.06-4.3c.26.67.53 1.33.82 1.99v.01c1.27 2.87 2.8 5.6 4.42 7.92l3.2 4.58v-42.9h-3.52z"/><path id="b" d="M1177.17 3119.1a37.93 37.93 0 0 1-4.38 7.37 44.55 44.55 0 0 1-6.58 7v-13.9c1.85-.7 3.63-1.5 5.29-2.37 1.3-.34 2.66-.51 4.03-.51a1.77 1.77 0 0 1 1.64 2.41zm-10.96-17.05a49.45 49.45 0 0 1 8.86 6.02c.4.34.63.83.63 1.35 0 .5-.18.95-.5 1.23-.54.48-1.2.93-1.96 1.44l-.02.01a41.94 41.94 0 0 1-7.01 3.68zm11.33 11.25a5.3 5.3 0 0 0-.19-7.91c-3.52-3-7.44-5.55-11.34-7.38l-.35-.16h-2.98v42.66l2.79-1.99a47.49 47.49 0 0 0 10.14-9.93l.01-.01a41.41 41.41 0 0 0 4.79-8.07 5.3 5.3 0 0 0-3.07-7.03c.06-.07.13-.12.2-.18z"/><path id="c" d="M1183.85 3100.41v-3.53l-7.06-1.4v-3.53l-15.88-3.16-1.18 1.8 1.18 1.8 12.35 2.45v3.53l7.06 1.41v3.53l7.04 1.4c-.24 9.9-3.02 17.94-8.9 25.92-4.87 6.45-11.23 11.71-17.55 14.54l-1.18 1.93 1.18 1.92.68-.3c7.1-2.98 14.28-8.8 19.68-15.97l.02-.02c6.65-9.01 9.62-18.1 9.62-29.46v-1.45z"/><path id="d" d="M1143.37 3130.63c-5.9-7.98-8.67-16.03-8.91-25.92l7.04-1.4v-3.53l7.06-1.4v-3.54l12.35-2.46v-3.6l-15.88 3.17v3.53l-7.06 1.4v3.53l-7.06 1.41v1.45c0 11.36 2.97 20.45 9.63 29.46l.01.02c5.4 7.17 12.58 13 19.68 15.97l.68.3v-3.85c-6.32-2.83-12.67-8.09-17.54-14.54z"/><path id="a" d="M779.2 3089.15l-59.25 7.4-34.7 22.6 34.7 22.6 55.55-6.93z"/><path id="b" d="M664.43 3103.47l-3.7 45.68 59.22-7.4v-15.34l-2.31-1.45 2.31-1.46v-8.72l-2.31-1.45 2.31-1.46v-15.33z"/><path id="c" d="M686.72 3118.3l-2.14 2.81a4.38 4.38 0 0 0-3.67-1.44 4.73 4.73 0 0 0-4.06 4.74c0 2.43 1.75 4.07 4.06 3.78 1.23-.15 2.65-1 3.67-2.16l2.16 2.02a10.15 10.15 0 0 1-6.02 3.41c-4.39.55-7.66-2.27-7.66-6.54 0-4.2 3.35-7.79 7.79-8.34 2.16-.27 4.41.4 5.87 1.73z"/><path id="d" d="M687.62 3130.44v-14.58l3.7-.46v14.58z"/><path id="e" d="M703.15 3128.5l-6.7-8.14v8.98l-3.48.43v-14.57l3.27-.41 6.72 8.16v-9l3.46-.43v14.58z"/><path id="f" d="M712 3115.74v2.9l6.95-.87v2.92l-6.95.86v2.94l7.95-1v2.92l-11.66 1.45v-14.57l11.66-1.42v2.91z"/><path id="g" d="M733.26 3110.16l-3.96 9.18-3.96-8.2-4.06.51v14.6l3.32-.42v-9.47l3.5 7.58 2.4-.3 3.5-8.45.03 9.47 3.27-.4v-14.6z"/><path id="h" d="M743.25 3118.02l2.12-5.66 2.09 5.13zm18.36-4.41l4.8-7.56-4.34.54-2.81 4.6-2.81-3.9-4.31.54 4.87 6.52-4.13 6.41-5.49-12.34-3.8.48-6.3 15.35 3.82-.47 1.06-2.82 6.37-.8 1.04 2.56 6.53-.8 3.15-5.04 3.14 4.25 4.44-.55z"/><path id="a" d="M163.35 49.69l-19.3-10.72 19.3-10.31zm-13.76.9L128.3 38.95l21.29-11.2v3.6l-14.62 7.8 14.62 7.07zm-15.65-.43l-20.68-11 20.68-11.39v4.45l-12.82 6.94 12.82 6.73zm19.45-20.72v-7.95l-15.32 8.4v-8.4L106 39.31l31.88 17.51-.1-8.92 15.57 8.93V48.7l14.53 8.12V21.5z"/><path id="b" d="M114.34 39.15l19.09-10.52v3.27l-13.4 7.26 13.4 7.03v3.11z"/><path id="c" d="M129.39 38.97l19.68-10.35v2.43l-15.23 8.13 15.23 7.37v3.17z"/><path id="d" d="M129.66 38.97l19.28-10.14v2.14l-15.39 8.21 15.4 7.45v2.87z"/><path id="e" d="M145.12 38.98l17.71-9.46v19.3z"/><path id="f" d="M120.2 47.75l13.69 7.44-13.69 7.66z"/><path id="g" d="M119.8 50.9v11.25l-10.16-5.48z"/><path id="h" d="M120.14 30.9l10.07-5.6-10.18-5.3z"/><path id="i" d="M168.38 32.82V43.6l10.29-5.38z"/><path id="j" d="M144.39 51.6v3.89l-6.56-3.88-.04-3.72z"/><path id="k" d="M196.24 38.7a4.71 4.71 0 0 0 3.37-8.07 4.73 4.73 0 0 0-8.1 3.35v4.71zm-5.73-10.29a8.3 8.3 0 0 1 11.47 0 7.42 7.42 0 0 1 2.42 5.57c0 2.17-.8 4.02-2.4 5.55a8.05 8.05 0 0 1-5.76 2.28h-8.13v-7.84c0-2.17.8-4.02 2.4-5.56z"/><path id="l" d="M220.34 41.8c-.89.02-1.75-.33-2.38-.96-.64-.6-1-1.45-1-2.33v-3h-7.48v6.3a3.3 3.3 0 0 1-2.38-.97c-.65-.6-1-1.45-1-2.33V26.1c.9-.02 1.75.33 2.38.97.65.6 1 1.44 1 2.32v3h7.49v-6.3a3.3 3.3 0 0 1 2.4.97c.63.6.99 1.45.97 2.33z"/><path id="m" d="M225.79 38.5c0 .89-.35 1.73-1 2.34a3.3 3.3 0 0 1-2.38.97v-7.87c0-2.18.8-4.03 2.4-5.55a8.03 8.03 0 0 1 5.74-2.28h4.74c.01.83-.32 1.63-.93 2.2-.6.6-1.42.93-2.26.92h-1.55a4.6 4.6 0 0 0-3.37 1.38c-.9.87-1.4 2.08-1.39 3.33z"/><path id="n" d="M248.77 29.4a3.14 3.14 0 0 1 1-2.33 3.28 3.28 0 0 1 2.37-.97v7.84c0 2.17-.8 4.02-2.39 5.56a7.95 7.95 0 0 1-5.72 2.3 7.98 7.98 0 0 1-5.75-2.3 7.45 7.45 0 0 1-2.39-5.56V26.1c.9-.02 1.75.33 2.38.97.64.6 1 1.44 1 2.32v4.54a4.76 4.76 0 0 0 8.11 3.34 4.6 4.6 0 0 0 1.39-3.33z"/><path id="o" d="M266.98 33.94a4.72 4.72 0 0 0-4.75-4.72h-4.74v4.72a4.74 4.74 0 1 0 9.5 0zm-9.5-8.45v.62h4.76c2.24 0 4.16.76 5.76 2.28a7.35 7.35 0 0 1 2.4 5.55c0 2.17-.8 4.02-2.42 5.56a8.3 8.3 0 0 1-11.48 0 7.44 7.44 0 0 1-2.4-5.56V22.19c.9 0 1.76.34 2.38.98.65.6 1.01 1.44 1 2.32z"/><path id="p" d="M280.2 29.23a4.53 4.53 0 0 0-3.36 1.4 4.71 4.71 0 0 0 3.37 8.06 4.6 4.6 0 0 0 3.37-1.38c.9-.88 1.4-2.08 1.39-3.34a4.76 4.76 0 0 0-4.76-4.75zm0-3.12c2.15-.04 4.21.8 5.74 2.3a7.44 7.44 0 0 1 2.4 5.57c0 2.17-.8 4.02-2.4 5.55a8.03 8.03 0 0 1-5.74 2.28 8 8 0 0 1-5.72-2.28 7.39 7.39 0 0 1-2.4-5.55c0-2.17.8-4.03 2.4-5.57a7.95 7.95 0 0 1 5.72-2.3z"/><path id="q" d="M293.42 41.8h-3.38V26.1c.9 0 1.76.34 2.38.98.65.6 1 1.44 1 2.32v3.16h4.46c1.26.02 2.48-.49 3.35-1.4.9-.88 1.4-2.09 1.39-3.34v-1.48h3.37v1.47c0 1.23-.3 2.45-.87 3.54a7.99 7.99 0 0 1-2.42 2.78 7.98 7.98 0 0 1 2.43 2.78c.57 1.08.87 2.3.87 3.52v1.38h-3.37v-1.38a4.61 4.61 0 0 0-1.4-3.33 4.53 4.53 0 0 0-3.35-1.41h-4.46z"/></defs><symbol id="header-decor" viewBox="0 0 853 949"><g transform="translate(-593 48)"><use fill="#1c45a4" xlink:href="#a"/><use fill="#fff" fill-opacity="0" stroke="#707070" stroke-miterlimit="50" xlink:href="#a"/></g></symbol><symbol id="icon-computer" viewBox="0 0 33 31"><use fill="#24d39b" xlink:href="#a" transform="translate(-863 -1545)"/><use fill="#24d39b" xlink:href="#b" transform="translate(-863 -1545)"/></symbol><symbol id="icon-design" viewBox="0 0 32 32"><use fill="#24d39b" xlink:href="#a" transform="translate(-543 -1544)"/><use fill="#24d39b" xlink:href="#b" transform="translate(-543 -1544)"/><use fill="#24d39b" xlink:href="#c" transform="translate(-543 -1544)"/><use fill="#24d39b" xlink:href="#d" transform="translate(-543 -1544)"/><use fill="#24d39b" xlink:href="#e" transform="translate(-543 -1544)"/><use fill="#24d39b" xlink:href="#f" transform="translate(-543 -1544)"/><use fill="#24d39b" xlink:href="#g" transform="translate(-543 -1544)"/><use fill="#24d39b" xlink:href="#h" transform="translate(-543 -1544)"/><use fill="#24d39b" xlink:href="#i" transform="translate(-543 -1544)"/><use fill="#24d39b" xlink:href="#j" transform="translate(-543 -1544)"/><use fill="#24d39b" xlink:href="#k" transform="translate(-543 -1544)"/><use fill="#24d39b" xlink:href="#l" transform="translate(-543 -1544)"/></symbol><symbol id="icon-facebook" viewBox="0 0 24 24"><path d="M9 8H6v4h3v12h5V12h3.642L18 8h-4V6.333C14 5.378 14.192 5 15.115 5H18V0h-3.808C10.596 0 9 1.583 9 4.615V8z"/></symbol><symbol id="icon-google" viewBox="0 0 24 24"><path d="M7 11v2.4h3.97c-.16 1.029-1.2 3.02-3.97 3.02-2.39 0-4.34-1.979-4.34-4.42 0-2.44 1.95-4.42 4.34-4.42 1.36 0 2.27.58 2.79 1.08l1.9-1.83C10.47 5.69 8.89 5 7 5c-3.87 0-7 3.13-7 7s3.13 7 7 7c4.04 0 6.721-2.84 6.721-6.84 0-.46-.051-.81-.111-1.16H7zm0 0l17 2h-3v3h-2v-3h-3v-2h3V8h2v3h3v2z" fill-rule="evenodd" clip-rule="evenodd"/></symbol><symbol id="icon-home" viewBox="0 0 32 32"><use fill="#24d39b" xlink:href="#a" transform="translate(-1186 -1544)"/><use fill="#24d39b" xlink:href="#b" transform="translate(-1186 -1544)"/><use fill="#24d39b" xlink:href="#c" transform="translate(-1186 -1544)"/><use fill="#24d39b" xlink:href="#d" transform="translate(-1186 -1544)"/><use fill="#24d39b" xlink:href="#e" transform="translate(-1186 -1544)"/><use fill="#24d39b" xlink:href="#f" transform="translate(-1186 -1544)"/></symbol><symbol id="icon-insta" viewBox="0 0 24 24"><path d="M12 2.163c3.204 0 3.584.012 4.85.07 3.252.148 4.771 1.691 4.919 4.919.058 1.265.069 1.645.069 4.849 0 3.205-.012 3.584-.069 4.849-.149 3.225-1.664 4.771-4.919 4.919-1.266.058-1.644.07-4.85.07-3.204 0-3.584-.012-4.849-.07-3.26-.149-4.771-1.699-4.919-4.92-.058-1.265-.07-1.644-.07-4.849 0-3.204.013-3.583.07-4.849.149-3.227 1.664-4.771 4.919-4.919 1.266-.057 1.645-.069 4.849-.069zM12 0C8.741 0 8.333.014 7.053.072 2.695.272.273 2.69.073 7.052.014 8.333 0 8.741 0 12c0 3.259.014 3.668.072 4.948.2 4.358 2.618 6.78 6.98 6.98C8.333 23.986 8.741 24 12 24c3.259 0 3.668-.014 4.948-.072 4.354-.2 6.782-2.618 6.979-6.98.059-1.28.073-1.689.073-4.948 0-3.259-.014-3.667-.072-4.947-.196-4.354-2.617-6.78-6.979-6.98C15.668.014 15.259 0 12 0zm0 5.838a6.162 6.162 0 1 0 0 12.324 6.162 6.162 0 0 0 0-12.324zM12 16a4 4 0 1 1 0-8 4 4 0 0 1 0 8zm6.406-11.845a1.44 1.44 0 1 0 0 2.881 1.44 1.44 0 0 0 0-2.881z"/></symbol><symbol id="icon-linkedin" viewBox="0 0 24 24"><path d="M4.98 3.5C4.98 4.881 3.87 6 2.5 6S.02 4.881.02 3.5C.02 2.12 1.13 1 2.5 1s2.48 1.12 2.48 2.5zM5 8H0v16h5V8zm7.982 0H8.014v16h4.969v-8.399c0-4.67 6.029-5.052 6.029 0V24H24V13.869c0-7.88-8.922-7.593-11.018-3.714V8z"/></symbol><symbol id="icon-shop" viewBox="0 0 32 32"><use fill="#24d39b" xlink:href="#a" transform="translate(-222 -1544)"/><use fill="#24d39b" xlink:href="#b" transform="translate(-222 -1544)"/><use fill="#24d39b" xlink:href="#c" transform="translate(-222 -1544)"/><use fill="#24d39b" xlink:href="#d" transform="translate(-222 -1544)"/><use fill="#24d39b" xlink:href="#e" transform="translate(-222 -1544)"/><use fill="#24d39b" xlink:href="#f" transform="translate(-222 -1544)"/><use fill="#24d39b" xlink:href="#g" transform="translate(-222 -1544)"/><use fill="#24d39b" xlink:href="#h" transform="translate(-222 -1544)"/><use fill="#24d39b" xlink:href="#i" transform="translate(-222 -1544)"/><use fill="#24d39b" xlink:href="#j" transform="translate(-222 -1544)"/><use fill="#24d39b" xlink:href="#k" transform="translate(-222 -1544)"/><use fill="#24d39b" xlink:href="#l" transform="translate(-222 -1544)"/><use fill="#24d39b" xlink:href="#m" transform="translate(-222 -1544)"/><use fill="#24d39b" xlink:href="#n" transform="translate(-222 -1544)"/><use fill="#24d39b" xlink:href="#o" transform="translate(-222 -1544)"/><use fill="#24d39b" xlink:href="#p" transform="translate(-222 -1544)"/><use fill="#24d39b" xlink:href="#q" transform="translate(-222 -1544)"/><use fill="#24d39b" xlink:href="#r" transform="translate(-222 -1544)"/><use fill="#24d39b" xlink:href="#s" transform="translate(-222 -1544)"/><use fill="#24d39b" xlink:href="#t" transform="translate(-222 -1544)"/><use fill="#24d39b" xlink:href="#u" transform="translate(-222 -1544)"/><use fill="#24d39b" xlink:href="#v" transform="translate(-222 -1544)"/><use fill="#24d39b" xlink:href="#w" transform="translate(-222 -1544)"/><use fill="#24d39b" xlink:href="#x" transform="translate(-222 -1544)"/></symbol><symbol id="icon-twitter" viewBox="0 0 24 24"><path d="M24 4.557a9.83 9.83 0 0 1-2.828.775 4.932 4.932 0 0 0 2.165-2.724 9.864 9.864 0 0 1-3.127 1.195 4.916 4.916 0 0 0-3.594-1.555c-3.179 0-5.515 2.966-4.797 6.045A13.978 13.978 0 0 1 1.671 3.149a4.93 4.93 0 0 0 1.523 6.574 4.903 4.903 0 0 1-2.229-.616c-.054 2.281 1.581 4.415 3.949 4.89a4.935 4.935 0 0 1-2.224.084 4.928 4.928 0 0 0 4.6 3.419A9.9 9.9 0 0 1 0 19.54a13.94 13.94 0 0 0 7.548 2.212c9.142 0 14.307-7.721 13.995-14.646A10.025 10.025 0 0 0 24 4.557z"/></symbol><symbol id="intro-decor" viewBox="0 0 863 150"><use fill="#24d39b" xlink:href="#a" opacity=".1" transform="translate(0 -708)"/><use fill="#24d39b" xlink:href="#b" opacity=".1" transform="translate(0 -708)"/></symbol><symbol id="intro-people" viewBox="0 0 601 335"><use fill="#5bb59b" xlink:href="#a" transform="translate(-757 -389)"/><use fill="#fff" xlink:href="#b" transform="translate(-757 -389)"/><use fill="#524f63" xlink:href="#c" transform="translate(-757 -389)"/><use fill="#63a590" xlink:href="#d" transform="translate(-757 -389)"/><use fill="#5bb59b" xlink:href="#e" transform="translate(-757 -389)"/><use fill="#ead18c" xlink:href="#f" transform="translate(-757 -389)"/><use fill="url(#g)" xlink:href="#h" opacity=".5" transform="translate(-757 -389)"/><use fill="#91616a" xlink:href="#i" transform="translate(-757 -389)"/><use fill="#5b61d3" xlink:href="#j" transform="translate(-757 -389)"/><use fill="#8385e6" xlink:href="#k" transform="translate(-757 -389)"/><use fill="url(#l)" xlink:href="#m" transform="translate(-757 -389)"/><use fill="#fff" xlink:href="#n" transform="translate(-757 -389)"/><use fill="#91616a" xlink:href="#o" transform="translate(-757 -389)"/><use fill="#91616a" xlink:href="#p" transform="translate(-757 -389)"/><use fill="#fff" xlink:href="#q" transform="translate(-757 -389)"/><use fill="#8385e6" xlink:href="#r" transform="translate(-757 -389)"/><use fill="url(#s)" xlink:href="#t" transform="translate(-757 -389)"/><use fill="#ead18c" xlink:href="#u" transform="translate(-757 -389)"/><use fill="#fff" xlink:href="#v" transform="translate(-757 -389)"/><use fill="#524f63" xlink:href="#w" transform="translate(-757 -389)"/><use fill="#524f63" xlink:href="#x" transform="translate(-757 -389)"/><use fill="#524f63" xlink:href="#y" transform="translate(-757 -389)"/><use fill="#4a4549" xlink:href="#z" transform="translate(-757 -389)"/><use fill="#4a4549" xlink:href="#A" transform="translate(-757 -389)"/><use fill="#eff2f7" xlink:href="#B" transform="translate(-757 -389)"/><use fill="#eff2f7" xlink:href="#C" transform="translate(-757 -389)"/><g transform="translate(-757 -389)"><use fill="#524f63" xlink:href="#D"/><use fill="#eebcc5" xlink:href="#E"/><use fill="#ec4a94" xlink:href="#F"/><use fill="url(#G)" xlink:href="#H"/><use fill="#eebcc5" xlink:href="#I"/><use fill="#eebcc5" xlink:href="#J"/><use fill="#eebcc5" xlink:href="#K"/><use fill="#eebcc5" xlink:href="#L"/><use fill="#524f63" xlink:href="#M"/><use fill="#524f63" xlink:href="#N"/><use fill="#524f63" xlink:href="#O"/><use fill="#524f63" xlink:href="#P"/></g><g transform="translate(-757 -389)"><use fill="#524f63" xlink:href="#Q"/><use fill="#f3a530" xlink:href="#R"/><use fill="#eebcc5" xlink:href="#S"/><use fill="#524f63" xlink:href="#T"/><use fill="#fff" xlink:href="#U"/><use fill="#524f63" xlink:href="#V"/><use fill="url(#W)" xlink:href="#X"/><use fill="#8385e6" xlink:href="#Y"/><use fill="#9092ec" xlink:href="#Z"/><use fill="#524f63" xlink:href="#aa"/><use fill="#eff2f7" xlink:href="#ab"/><use fill="#524f63" xlink:href="#ac"/><use fill="#eebcc5" xlink:href="#ad"/><use fill="#4a4549" xlink:href="#ae"/><use fill="#4a4549" xlink:href="#af" opacity=".7"/><use fill="#eebcc5" xlink:href="#ag"/><use fill="#4a4549" xlink:href="#ah"/><use fill="#524f63" xlink:href="#ai"/><use fill="#fff" xlink:href="#aj"/><use fill="#5b61d3" xlink:href="#ak"/><use fill="#f3a530" xlink:href="#al"/><use fill="#eebcc5" xlink:href="#am"/></g><g transform="translate(-757 -389)"><use fill="#75454f" xlink:href="#an"/><use fill="#56b949" xlink:href="#ao"/><use fill="#91616a" xlink:href="#ap"/><use fill="#91616a" xlink:href="#aq"/><use fill="#4a4549" xlink:href="#ar"/><use fill="#91616a" xlink:href="#as"/><use fill="#fff" xlink:href="#at"/><use fill="#56b949" xlink:href="#au"/><use fill="#37354c" xlink:href="#av"/><use fill="#524f63" xlink:href="#aw"/><use fill="#524f63" xlink:href="#ax"/><use fill="#37354c" xlink:href="#ay"/><use fill="#91616a" xlink:href="#az"/><use fill="#56b949" xlink:href="#aA"/><use fill="url(#aB)" xlink:href="#aC"/></g><g transform="translate(-757 -389)"><use fill="#eebcc5" xlink:href="#aD"/><use fill="#524f63" xlink:href="#aE"/></g><g transform="translate(-757 -389)"><use fill="#eebcc5" xlink:href="#aF"/><use fill="#524f63" xlink:href="#aG"/></g><g fill="#fff" transform="translate(-757 -389)"><use xlink:href="#aH"/><use xlink:href="#aI"/><use xlink:href="#aJ"/><use fill-opacity="0" stroke="#fff" stroke-miterlimit="50" xlink:href="#aK"/><use fill-opacity="0" stroke="#fff" stroke-miterlimit="50" xlink:href="#aL"/><use fill-opacity="0" stroke="#fff" stroke-miterlimit="50" xlink:href="#aM"/><use xlink:href="#aN"/><use xlink:href="#aO"/></g><g fill="#fff" transform="translate(-757 -389)"><use xlink:href="#aP"/><use xlink:href="#aQ"/><use xlink:href="#aR"/><use fill-opacity="0" stroke="#fff" stroke-miterlimit="50" xlink:href="#aS"/><use fill-opacity="0" stroke="#fff" stroke-miterlimit="50" xlink:href="#aT"/><use fill-opacity="0" stroke="#fff" stroke-miterlimit="50" xlink:href="#aU"/><use xlink:href="#aV"/><use xlink:href="#aW"/></g><g fill="#f5f5f5" transform="translate(-757 -389)"><use xlink:href="#aX"/><use xlink:href="#aY"/><use xlink:href="#aZ"/><use xlink:href="#ba"/><use xlink:href="#bb"/></g></symbol><symbol id="logo-amc" viewBox="0 0 114 60"><use fill="#b7c3c8" xlink:href="#a" transform="translate(-225 -3087)"/><use fill="#d1dee4" xlink:href="#b" transform="translate(-225 -3087)"/><use fill="#012231" xlink:href="#c" transform="translate(-225 -3087)"/><use xlink:href="#d" transform="translate(-225 -3087)"/><use xlink:href="#e" transform="translate(-225 -3087)"/><use fill="#012231" xlink:href="#f" transform="translate(-225 -3087)"/></symbol><symbol id="logo-bros" viewBox="0 0 60 61"><use fill="#009ad2" xlink:href="#a" transform="translate(-1131 -3088)"/><use fill="#007caa" xlink:href="#b" transform="translate(-1131 -3088)"/><use fill="#007caa" xlink:href="#c" transform="translate(-1131 -3088)"/><use fill="#009ad2" xlink:href="#d" transform="translate(-1131 -3088)"/></symbol><symbol id="logo-cinemax" viewBox="0 0 120 61"><use fill="#ffb037" xlink:href="#a" transform="translate(-660 -3089)"/><use fill="#ffd237" xlink:href="#b" transform="translate(-660 -3089)"/><use fill="#012231" xlink:href="#c" transform="translate(-660 -3089)"/><use fill="#012231" xlink:href="#d" transform="translate(-660 -3089)"/><use fill="#012231" xlink:href="#e" transform="translate(-660 -3089)"/><use fill="#012231" xlink:href="#f" transform="translate(-660 -3089)"/><use xlink:href="#g" transform="translate(-660 -3089)"/><use xlink:href="#h" transform="translate(-660 -3089)"/></symbol><symbol id="logo" viewBox="0 0 201 43"><use fill="#1376ba" xlink:href="#a" transform="translate(-106 -20)"/><use fill="#88c542" xlink:href="#b" transform="translate(-106 -20)"/><use fill="#90c840" xlink:href="#c" transform="translate(-106 -20)"/><use fill="#88c542" xlink:href="#d" transform="translate(-106 -20)"/><use fill="#88c542" xlink:href="#e" transform="translate(-106 -20)"/><use fill="#88c542" xlink:href="#f" transform="translate(-106 -20)"/><use fill="#88c542" xlink:href="#g" transform="translate(-106 -20)"/><use fill="#88c542" xlink:href="#h" transform="translate(-106 -20)"/><use fill="#88c542" xlink:href="#i" transform="translate(-106 -20)"/><use fill="#88c542" xlink:href="#j" transform="translate(-106 -20)"/><use fill="#1077be" xlink:href="#k" transform="translate(-106 -20)"/><use fill="#1077be" xlink:href="#l" transform="translate(-106 -20)"/><use fill="#1077be" xlink:href="#m" transform="translate(-106 -20)"/><use fill="#1077be" xlink:href="#n" transform="translate(-106 -20)"/><use fill="#1077be" xlink:href="#o" transform="translate(-106 -20)"/><use fill="#1077be" xlink:href="#p" transform="translate(-106 -20)"/><use fill="#1077be" xlink:href="#q" transform="translate(-106 -20)"/></symbol></svg>